<svg xmlns="http://www.w3.org/2000/svg" viewBox="0 0 299.22 42.85"><defs><style>.cls-1{fill:#231815;}</style></defs><g id="レイヤー_2" data-name="レイヤー 2"><g id="レイヤー_1-2" data-name="レイヤー 1"><path class="cls-1" d="M10.69,27.34a38.07,38.07,0,0,0,5.05-7.07,60.73,60.73,0,0,0,3.1-6.86c.62-1.63,2-1.52,1.42,0a46.19,46.19,0,0,1-8.73,14.69A55.3,55.3,0,0,1,.37,37.39c-.53.32-.47-.73,0-1.09A66,66,0,0,0,10.69,27.34Z"/><path class="cls-1" d="M42.84,25.55c0-3.52-1.2-6.17-3.07-7.44,0,0-.09,0-.16,0-.61.58-1.24,1.16-1.87,1.67a62.08,62.08,0,0,1-10.61,7.07c-.71.33-.42-.87.16-1.2,1.28-.69,2.57-1.59,3.83-2.39a59.68,59.68,0,0,0,6.2-4.68A29.8,29.8,0,0,0,45.71,7.38c.12-.26.08-.44-.07-.44h-7c-.23,0-.29-.36-.14-.76s.46-.76.69-.76h7.25l.78,0c.38,0,.46.66.2,1.31l0,.07a31.79,31.79,0,0,1-6.44,10s-.07.15,0,.18c2,1.16,3.28,3.63,3.6,7C44.59,25.29,43,26.82,42.84,25.55Z"/><path class="cls-1" d="M71.9,13.1a32.4,32.4,0,0,1-7.11,10.59.31.31,0,0,0-.07.18,16.33,16.33,0,0,1,.85,3.55c.16,1.24-1.51,2.76-1.62,1.56a27.46,27.46,0,0,0-.62-3.77s-.07,0-.12,0c-.48.44-1,.87-1.43,1.27a81.89,81.89,0,0,1-11.43,7.87c-.56.33-.41-.83.13-1.16a84.73,84.73,0,0,0,10.43-7.51c.64-.54,1.3-1.12,1.92-1.74a.17.17,0,0,0,.06-.18,30.13,30.13,0,0,0-2.14-5.19c-2.18,2-4.21,3.45-6.26,5-.56.44-.49-.61,0-1,3.83-3.19,8.87-6.78,11-13.2.52-1.53,1.9-1.64,1.39-.11A20.12,20.12,0,0,1,66,11.61c0,.07,0,.15,0,.15h5.73c.36,0,.46.65.2,1.3Zm-7.73,9.39s.1,0,.17,0a30,30,0,0,0,5.93-8.75c.11-.25.06-.47-.06-.47h-5a.33.33,0,0,0-.18.15,22.23,22.23,0,0,1-3.27,4.2.22.22,0,0,0-.07.19A40.55,40.55,0,0,1,64.17,22.49Z"/><path class="cls-1" d="M79.74,33.91a41.62,41.62,0,0,1-7.89,8.81c-.55.47-.67-.4-.15-1,2.33-2.36,5.16-5,7.09-8.34A68.63,68.63,0,0,0,83.6,22.73c.59-1.63,2-1.56,1.39,0A60.85,60.85,0,0,1,79.74,33.91ZM82.12,40c-.46.11-.69-.51-.42-1.27l6.8-18.68c.57-1.56,1.94-1.52,1.39,0L83.72,37c-.09.25,0,.4.12.36,3.34-1.16,7.27-6.64,10.37-10.55.51-.66.76.1.33.72C90.76,32.64,86.23,39.27,82.12,40Z"/><path class="cls-1" d="M108.62,20.71c.33.83-1,2.57-1.38,1.7a16.14,16.14,0,0,0-.7-1.92,6.48,6.48,0,0,0-1.61-1.88c-.36-.26.27-1.49.69-1.31A6.19,6.19,0,0,1,108.62,20.71Zm-5.37,10.84c2.85-.18,5.83-2.64,9-5.87a127.63,127.63,0,0,0,9.32-11.14c.51-.65.93,0,.43.73-5.82,7.87-13.3,17.92-19.55,18.75-1,.18-.1-2.43.79-2.47Zm10.38-17.22c.36.79-1,2.53-1.35,1.7a20.65,20.65,0,0,0-.7-2A6.26,6.26,0,0,0,110,12.22c-.36-.29.31-1.49.7-1.3A5.86,5.86,0,0,1,113.63,14.33Zm6.78-1.89c-.41,1.05-1,1.27-1,.54a6.09,6.09,0,0,0-1.32-3.88c-.18-.18.11-.76.38-.76A3,3,0,0,1,120.41,12.44Zm2.76-2.69c-.32,1.06-1,1.31-1,.59a5.45,5.45,0,0,0-1.52-3.63c-.18-.18.09-.76.36-.8A2.83,2.83,0,0,1,123.17,9.75Z"/><path class="cls-1" d="M128.05,28.56c-.09,1.34-1.76,2.36-1.56.94a23.33,23.33,0,0,0,.4-5c-.09-.65.83-1.7,1-1.08A17,17,0,0,1,128.05,28.56Zm-2,7.91A29.8,29.8,0,0,0,137.7,22.36s.21-.58.42-1.09c.51-1.31,1.69-1.31,1.19.07-.17.47-.44,1.16-.44,1.16a30.34,30.34,0,0,1-13,15.2c-.88.58-1.65,1-2.66,1.6-.47.21-.32-.73.13-1.06C124.49,37.56,126,36.47,126,36.47Zm6.36-10c-.27,1.42-1.78,2-1.48.58.13-.69.39-1.41.5-2.17a10.5,10.5,0,0,0,.1-2.87c-.19-.61.71-1.59.95-1.05A13,13,0,0,1,132.4,26.49Z"/><path class="cls-1" d="M165.38,19.23c.37,0,.47.54.21,1.19l0,.08a36.53,36.53,0,0,1-9.89,14A62.46,62.46,0,0,1,145,41.86c-.53.33-.38-.8.12-1.12a61.06,61.06,0,0,0,10.16-7.55,33.68,33.68,0,0,0,8.5-12c.1-.26.07-.48-.08-.48h-4.89c-.06,0-.13.08-.18.15-3,5-7.26,7.72-10.52,10.15-.55.44-.5-.58,0-1,3.34-2.76,7-5.44,9.55-9.79a21.71,21.71,0,0,0,1.7-4c.52-1.56,1.84-1.49,1.39-.07-.36,1-.75,2-1.19,3,0,.07,0,.15,0,.15Z"/><path class="cls-1" d="M178.07,33.71c.57-.58.66.32.17.79l-.34.37a6,6,0,0,0-1.64,2.35c-.32.87-1.08,1.08-1,.38.39-5.83,3.12-12.24,6.44-18.3.66-1.16,1.45-.58.83.58-2.69,4.84-5.24,10.24-6,15.14,0,.26.13.29.3.09s.58-.67.94-1ZM186,37l-.77.18c-1.51.26-3.13.29-4.2-.73s-.78-2.9.21-5a16.62,16.62,0,0,1,3.55-4.7c1.69-1.62,3.07-2.69,4.4-3.82.17-.15.29-.55.13-.53-1.54.21-2.68,0-3.36-1.3-.23-.38.46-1.39.76-1.07,1.19,1.3,2.91.92,4.61.66.33-.06.44.32.29.79a3.47,3.47,0,0,1-1.39,1.5,45.22,45.22,0,0,0-5.33,4.59,13.39,13.39,0,0,0-3,4.09c-.67,1.59-.48,2.61.08,3.19,1.06.81,2.61.58,3.83.4,0,0,.48-.11.76-.14C187.32,35.08,186.74,36.85,186,37Z"/><path class="cls-1" d="M212.16,8.78l-2.78,7.65.32-.14c.91-.4,1.85-.87,2.87-1.42.27-.1.37,0,.24.44a.94.94,0,0,1-.43.54c-.92.58-2.12,1.35-3.61,2.25l-4.05,11.14c-.7,1.92-1.63,3-2.76,3.08-.22,0-.24-.14-.17-.51a1.16,1.16,0,0,0-.22-1,2.1,2.1,0,0,0-.83-.55c-.16-.07-.19-.29-.07-.61a.42.42,0,0,1,.47-.33,6.82,6.82,0,0,0,1.58.22c.47,0,.82-.33,1.05-1l3.5-9.61c-.63.36-1.29.72-2,1-.43,1-.74,1.52-.95,1.52s-.25-.87.08-2.65a.78.78,0,0,1,.48-.68c1.25-.44,2.28-.84,3-1.13l3-8.27h-2.42c-.19,0-.24-.14-.22-.43a.48.48,0,0,1,.47-.48h2.5L214,.55c.13-.36.33-.58.55-.55,1.15.08,1.63.37,1.46.84-.12.32-.55.65-1.29,1l-2.2,6h1l1.36-1.81c.26-.33.44-.36.49-.07a15.36,15.36,0,0,1,.24,1.7l0,0a1,1,0,0,1-.23.76.54.54,0,0,1-.46.29Zm1.38,20.57h3.07l2.7-7.44c.13-.36.34-.58.56-.54,1.09.18,1.53.5,1.35,1A2.68,2.68,0,0,1,220,23.43l-3.09,8.49c-.13.36-.31.58-.52.58h-.55c-.23,0-.25-.22-.12-.58l.61-1.67H209l-.61,1.67c-.13.36-.33.58-.54.58h-.55c-.21,0-.23-.22-.1-.58l3.54-9.72c.13-.36.33-.58.55-.54,1.05.11,1.49.4,1.33.83s-.49.62-1.18,1.05l-2.11,5.81h2.94l3.54-9.72h-5.23c-.17,0-.24-.15-.22-.44a.5.5,0,0,1,.49-.47h5.29l1.7-4.68H213.4c-.19,0-.26-.14-.21-.47a.5.5,0,0,1,.48-.44h6.61c1.74-2.54,3.47-5.33,5.24-8.45.19-.36.38-.47.56-.32.72.72,1,1.37.8,1.88-.12.33-.48.51-1.11.51A77.29,77.29,0,0,1,221,13.13h1.4l1.3-1.59c.24-.33.42-.37.47,0,.08.55.17,1.05.25,1.53a1.16,1.16,0,0,1-.23.79.46.46,0,0,1-.42.22h-4.68l-1.7,4.68h3.78l1.5-1.81c.23-.29.41-.33.49-.08a15.42,15.42,0,0,1,.29,1.67,1.12,1.12,0,0,1-.23.8.54.54,0,0,1-.47.33h-5.69Zm3-25.07A42.5,42.5,0,0,0,227.29.8c.21-.11.32-.07.41.07.49.91.69,1.53.56,1.89a.51.51,0,0,1-.52.33,1.5,1.5,0,0,1-.66-.15,69.61,69.61,0,0,1-10.82,2.32c-.19,0-.26-.14-.22-.43A.61.61,0,0,1,216.51,4.28Zm.58,1.93a5.45,5.45,0,0,1,.38,4.67c-.33.91-.76,1.38-1.26,1.38s-.37-.47-.12-1.34a10.07,10.07,0,0,0,.39-4,.84.84,0,0,1,.21-.69C216.84,6,217,6,217.09,6.21Zm3.53-.77a6.48,6.48,0,0,1,.19,4.9c-.35,1-.78,1.45-1.28,1.45s-.44-.47-.15-1.38A11.6,11.6,0,0,0,220,6.13a.92.92,0,0,1,.25-.72C220.41,5.23,220.56,5.23,220.62,5.44Z"/><path class="cls-1" d="M242,30.69a11.49,11.49,0,0,1-6.76,5,8.08,8.08,0,0,1-4.06.25h0c-.42-.07.12-1.31.5-1.2a9.6,9.6,0,0,0,3.92-.69,11,11,0,0,0,5.57-4.46c1-1.45,1.76-3.55,1.5-4.75a1.35,1.35,0,0,0-1-1.16c-2.17-.43-4.22.62-6.92,2.69-.47.36-1.09,1.16-1.52,1.12s-.47-.51-.24-1.12l2.9-8c1.14-3.12,2.4-4.86,4.22-5.66a6.06,6.06,0,0,1,1.69-.44.51.51,0,0,0,.28-.58,3.8,3.8,0,0,1-1-2.83c-.06-.69.87-1.52.94-.9a2.82,2.82,0,0,0,3.31,2.61c.41,0,.64.32.49,1S245,13,244.56,13c-1.89,0-5.26-.14-6.84,3.74l-2.8,7.76c-.11.29,0,.47.23.33,2.95-2.14,5-3.05,7.19-2.72a2,2,0,0,1,1.48,1.3A8.24,8.24,0,0,1,243,28.8,13,13,0,0,1,242,30.69Z"/><path class="cls-1" d="M268.3,36.9c-2.06.87-3.08-.65-2-3.74.4-1.23,1.15-2.86,1.68-4.1a52.91,52.91,0,0,0,2.93-7.29c.51-2.28-1.3-1.56-2.41-.65a63.85,63.85,0,0,0-6,5.62.92.92,0,0,0-.16.26l-4.66,12.8c-.53,1.45-1.72,1.45-1.2,0l4-11c0-.11,0-.14-.12-.07-2.24,2.29-4.19,4.35-6.5,6.82-.37.4-.69.4-.76.07-.11-.61.49-1.34.88-1.88,2.23-3.09,4.22-6.06,6-9a15.85,15.85,0,0,0,1.67-3.48c.64-2-1.2-1.77-2.16-1.74-.68,0-.2-1.7.55-1.85a3.29,3.29,0,0,1,2.19.22c.71.47.85,1.74.36,3.23a19.23,19.23,0,0,1-2.05,4.17c-1.21,2-2.51,3.84-3.77,5.69-.11.18,0,.37.11.22,1.38-1.49,2.61-2.72,4.22-4.31a.69.69,0,0,0,.17-.26l4.9-13.46c.53-1.45,1.72-1.45,1.2,0l-4.26,11.68c0,.08,0,.15.08.08,1.65-1.53,3-3,5.33-4.94A4.55,4.55,0,0,1,271,18.73c1.09-.11,1.49.87,1.26,2.43-.47,2.61-1.85,5.47-3,8.09-.52,1.19-1.21,2.68-1.62,3.8-.64,1.89-.15,2.61,1,2.18A8.07,8.07,0,0,0,272,32.91c.57-.55.75.25.19.91A10.74,10.74,0,0,1,268.3,36.9Z"/><path class="cls-1" d="M297.78,9.25a2.56,2.56,0,0,1-1.89.69H293a.29.29,0,0,0-.22.11c-3.2,3.11-6.82,7.76-8.34,12.58-1.72,5.41,1,6.17,3.56,6.13,1-.07.09,2.47-.86,2.47A4.52,4.52,0,0,1,283.45,30c-1.19-1.19-1.43-3.59-.52-6.6,1.56-5.15,5.26-10,8.73-13.2.07-.07.1-.22,0-.22h-7.81c-.59,0,0-1.48.54-1.48h9a.37.37,0,0,0,.15-.08,16.32,16.32,0,0,1,4.38-3c.56-.22,1.08-.15,1.2.43A4.25,4.25,0,0,1,297.78,9.25Zm-.14-2.58a9.18,9.18,0,0,0-2.79,1.63c-.08,0-.11.19-.05.19h1.83a1.75,1.75,0,0,0,1-.44C298.46,7.25,298.34,6.49,297.64,6.67Z"/></g></g></svg>