<svg xmlns="http://www.w3.org/2000/svg" viewBox="0 0 79.83 76.07"><title>アセット 1</title><g id="レイヤー_2" data-name="レイヤー 2"><g id="レイヤー_1-2" data-name="レイヤー 1"><g id="LINE_LOGO" data-name="LINE LOGO"><path d="M79.82,32.39C79.82,14.53,61.92,0,39.91,0S0,14.53,0,32.39c0,16,14.2,29.42,33.38,32,1.3.28,3.07.86,3.51,2A7.94,7.94,0,0,1,37,69.92l-.57,3.41c-.17,1-.8,4,3.46,2.15S62.89,62,71.27,52.31c5.79-6.34,8.56-12.78,8.56-19.92Zm-54,9.51a.78.78,0,0,1-.78.78H13.85a.77.77,0,0,1-.54-.22.79.79,0,0,1-.22-.54V24.53h0a.76.76,0,0,1,.78-.76h2.81a.76.76,0,0,1,.77.77V38.34h7.6v0a.78.78,0,0,1,.78.78Zm6.75,0a.78.78,0,0,1-.78.78H29a.78.78,0,0,1-.78-.78V24.53a.78.78,0,0,1,.78-.77h2.8a.78.78,0,0,1,.78.77Zm19.25-.14a.78.78,0,0,1-.78.78h-3.2a.9.9,0,0,1-.2-.19l-8-10.77V41.92h0a.76.76,0,0,1-.77.77h-2.8a.78.78,0,0,1-.78-.78V24.77a.78.78,0,0,1,.78-.77h3.38l0,.1,8,10.76V24.53a.78.78,0,0,1,.78-.77h2.78a.78.78,0,0,1,.78.77Zm14.7-10.73h0a.76.76,0,0,1,.76.78v2.8h0a.76.76,0,0,1-.77.77H58.92v2.91h7.62a.76.76,0,0,1,.76.78v2.8h0a.76.76,0,0,1-.77.77H55.34a.75.75,0,0,1-.53-.22.77.77,0,0,1-.22-.54V24.51A.78.78,0,0,1,54.8,24a.77.77,0,0,1,.54-.22h11.2a.76.76,0,0,1,.76.78v2.79h0a.76.76,0,0,1-.77.77H58.92v2.94Z"/></g></g></g></svg>