<svg xmlns="http://www.w3.org/2000/svg" viewBox="0 0 166.57 130.89"><defs><style>.cls-1{fill:#231815;}</style></defs><g id="レイヤー_2" data-name="レイヤー 2"><g id="レイヤー_1-2" data-name="レイヤー 1"><path class="cls-1" d="M7.73,122.45a20.48,20.48,0,0,0,2.75-3.84,35.38,35.38,0,0,0,1.69-3.73c.33-.89,1.07-.83.77,0a25.22,25.22,0,0,1-4.75,8,29.85,29.85,0,0,1-6.07,5c-.29.17-.25-.4,0-.59A36.28,36.28,0,0,0,7.73,122.45Z"/><path class="cls-1" d="M25.22,121.48a4.84,4.84,0,0,0-1.67-4s-.05,0-.09,0c-.33.32-.68.63-1,.91a33.87,33.87,0,0,1-5.77,3.85c-.38.17-.23-.48.09-.65.7-.38,1.4-.87,2.08-1.31a31,31,0,0,0,3.37-2.54,16.17,16.17,0,0,0,4.57-6.12c.06-.13,0-.23,0-.23H22.93c-.13,0-.16-.2-.08-.42s.25-.41.38-.41h3.94l.42,0c.21,0,.25.35.11.71v0a17.43,17.43,0,0,1-3.5,5.44.1.1,0,0,0,0,.1,4.67,4.67,0,0,1,2,3.81C26.17,121.34,25.28,122.17,25.22,121.48Z"/><path class="cls-1" d="M41,114.71a17.8,17.8,0,0,1-3.86,5.76.23.23,0,0,0,0,.09,8.75,8.75,0,0,1,.46,1.94c.09.67-.82,1.5-.88.85a15.53,15.53,0,0,0-.34-2.06s0,0-.07,0c-.25.24-.51.48-.77.7a45.6,45.6,0,0,1-6.22,4.28c-.3.17-.22-.46.07-.64a45.07,45.07,0,0,0,5.68-4.08c.34-.29.7-.61,1-1a.08.08,0,0,0,0-.09A15.75,15.75,0,0,0,35,117.69c-1.19,1.06-2.29,1.87-3.41,2.7-.3.23-.26-.34,0-.55,2.08-1.74,4.82-3.69,6-7.19.28-.82,1-.88.76-.05a13.5,13.5,0,0,1-.51,1.3s0,.08,0,.08h3.12c.2,0,.25.35.11.71Zm-4.2,5.11s0,0,.09,0A16.14,16.14,0,0,0,40.13,115c.07-.14,0-.25,0-.25H37.36a.18.18,0,0,0-.1.07,11.67,11.67,0,0,1-1.78,2.29.11.11,0,0,0,0,.1A22.38,22.38,0,0,1,36.82,119.82Z"/><path class="cls-1" d="M45.29,126a22.76,22.76,0,0,1-4.29,4.8c-.3.25-.37-.22-.08-.54a23.48,23.48,0,0,0,3.85-4.53,37,37,0,0,0,2.61-5.8c.33-.89,1.1-.85.76,0A33.39,33.39,0,0,1,45.29,126Zm1.29,3.32c-.25.06-.38-.28-.23-.69l3.7-10.16c.31-.85,1.06-.83.75,0l-3.35,9.21c-.05.14,0,.22.07.2,1.81-.63,3.95-3.61,5.64-5.74.28-.36.41.06.17.39C51.28,125.33,48.82,128.94,46.58,129.34Z"/><path class="cls-1" d="M61,118.85c.18.45-.56,1.4-.74.92a8,8,0,0,0-.39-1,3.55,3.55,0,0,0-.87-1c-.2-.14.15-.81.37-.71A3.33,3.33,0,0,1,61,118.85Zm-2.92,5.89c1.56-.09,3.17-1.44,4.89-3.19A72.17,72.17,0,0,0,68,115.49c.27-.35.5,0,.23.4-3.17,4.28-7.24,9.74-10.63,10.2-.52.09-.06-1.33.43-1.35Zm5.65-9.37c.2.44-.56,1.38-.74.93a9.53,9.53,0,0,0-.38-1.06,3.12,3.12,0,0,0-.89-1c-.19-.16.17-.81.39-.71A3.23,3.23,0,0,1,63.72,115.37Zm3.68-1c-.21.57-.53.69-.56.29a3.27,3.27,0,0,0-.72-2.11c-.1-.1.06-.41.21-.41A1.64,1.64,0,0,1,67.4,114.35Zm1.51-1.46c-.18.57-.52.71-.55.31a3,3,0,0,0-.83-2c-.1-.1,0-.41.2-.43A1.55,1.55,0,0,1,68.91,112.89Z"/><path class="cls-1" d="M71.56,123.12c0,.73-1,1.28-.85.51a12,12,0,0,0,.22-2.7c-.05-.36.45-.93.53-.6A9.06,9.06,0,0,1,71.56,123.12Zm-1.09,4.3a16.24,16.24,0,0,0,6.34-7.68l.23-.59c.28-.71.92-.71.65,0l-.25.63a16.53,16.53,0,0,1-7,8.27c-.49.31-.9.55-1.45.87-.26.11-.18-.4.07-.58C69.62,128,70.47,127.42,70.47,127.42ZM73.92,122c-.14.77-1,1.09-.8.32.07-.38.22-.77.28-1.19a5.9,5.9,0,0,0,0-1.55c-.11-.34.38-.87.52-.58A7.1,7.1,0,0,1,73.92,122Z"/><path class="cls-1" d="M91.86,118c.21,0,.26.3.12.65v0a19.9,19.9,0,0,1-5.38,7.59,34.4,34.4,0,0,1-5.8,4c-.29.18-.2-.43.07-.61a33.16,33.16,0,0,0,5.52-4.11A18.39,18.39,0,0,0,91,119.11c0-.14,0-.26-.05-.26H88.3s-.07,0-.09.08c-1.65,2.72-3.95,4.2-5.73,5.52-.3.24-.27-.31,0-.55a20.79,20.79,0,0,0,5.19-5.33,11.57,11.57,0,0,0,.92-2.19c.29-.85,1-.81.76,0-.19.54-.4,1.09-.64,1.62,0,0,0,.08,0,.08Z"/><path class="cls-1" d="M98.77,125.92c.3-.32.36.17.09.43l-.18.2a3.24,3.24,0,0,0-.9,1.28c-.17.47-.59.58-.57.2.22-3.17,1.71-6.65,3.51-10,.36-.63.79-.32.45.32a26.25,26.25,0,0,0-3.25,8.23c0,.14.07.16.16.05s.32-.37.51-.57Zm4.31,1.77-.41.09a2.63,2.63,0,0,1-2.29-.39c-.51-.51-.42-1.58.11-2.7a9.21,9.21,0,0,1,1.94-2.56c.91-.88,1.67-1.46,2.39-2.08.09-.08.16-.3.07-.28-.84.11-1.46,0-1.83-.71-.12-.21.25-.76.42-.59.64.71,1.58.51,2.5.37.18,0,.24.17.16.42a1.9,1.9,0,0,1-.75.82,23.16,23.16,0,0,0-2.9,2.5,7.38,7.38,0,0,0-1.63,2.22c-.36.87-.26,1.42,0,1.73a2.78,2.78,0,0,0,2.08.23,2.8,2.8,0,0,1,.42-.08C103.79,126.66,103.48,127.62,103.08,127.69Z"/><path class="cls-1" d="M117.31,112.36l-1.52,4.16.18-.08c.49-.21,1-.47,1.56-.77.15-.06.2,0,.13.24a.51.51,0,0,1-.23.3c-.5.31-1.16.73-2,1.22l-2.2,6c-.38,1-.89,1.62-1.5,1.68-.12,0-.13-.08-.09-.27a.65.65,0,0,0-.12-.56,1.24,1.24,0,0,0-.45-.29c-.09,0-.11-.16,0-.34a.23.23,0,0,1,.26-.18,3.67,3.67,0,0,0,.85.12c.26,0,.45-.18.58-.53l1.9-5.23c-.35.2-.7.4-1.07.57-.23.56-.4.83-.52.83s-.13-.47,0-1.44a.43.43,0,0,1,.26-.37c.68-.24,1.24-.46,1.65-.61l1.64-4.5h-1.31c-.11,0-.14-.08-.12-.24a.24.24,0,0,1,.25-.25h1.36l1.45-4c.07-.2.18-.31.3-.3.63,0,.89.2.79.46s-.3.35-.7.55l-1.19,3.28h.57l.74-1c.14-.18.24-.2.26,0a6.89,6.89,0,0,1,.13.93v0a.65.65,0,0,1-.13.41.29.29,0,0,1-.25.16Zm.75,11.18h1.66l1.48-4c.07-.2.18-.32.3-.3.59.1.83.28.73.56s-.29.35-.68.57l-1.68,4.61c-.08.2-.18.32-.29.32h-.3c-.12,0-.14-.12-.06-.32l.33-.9h-3.94l-.33.9c-.08.2-.19.32-.3.32h-.3c-.11,0-.13-.12-.06-.32l1.93-5.28c.07-.2.18-.32.3-.3.57.06.81.22.73.46s-.27.33-.65.57l-1.14,3.15h1.59l1.93-5.28h-2.85c-.09,0-.13-.08-.11-.24a.26.26,0,0,1,.26-.26h2.88l.92-2.54H118c-.1,0-.14-.08-.11-.26a.26.26,0,0,1,.26-.23h3.59c1-1.38,1.89-2.9,2.85-4.6.11-.2.21-.26.31-.18.39.4.54.75.43,1s-.26.27-.6.27a42.25,42.25,0,0,1-2.59,3.48h.77l.7-.87c.14-.18.23-.2.26,0s.09.57.13.83a.62.62,0,0,1-.12.43.25.25,0,0,1-.23.12h-2.54l-.93,2.54h2.06l.81-1c.13-.16.23-.18.27,0a7.56,7.56,0,0,1,.16.91.6.6,0,0,1-.12.43.31.31,0,0,1-.26.18H120Zm1.61-13.63a23.11,23.11,0,0,0,5.87-1.89c.11-.06.17,0,.22,0q.4.73.3,1a.27.27,0,0,1-.28.18.84.84,0,0,1-.36-.08,39.22,39.22,0,0,1-5.88,1.27q-.17,0-.12-.24A.32.32,0,0,1,119.67,109.91Zm.32,1a3,3,0,0,1,.2,2.54c-.18.5-.41.75-.68.75s-.2-.25-.07-.73a5.43,5.43,0,0,0,.22-2.19.46.46,0,0,1,.11-.37C119.85,110.86,119.93,110.86,120,111Zm1.92-.42a3.54,3.54,0,0,1,.1,2.67c-.19.53-.42.79-.69.79s-.24-.26-.09-.75a6.33,6.33,0,0,0,.33-2.33.53.53,0,0,1,.13-.4C121.79,110.43,121.87,110.43,121.91,110.54Z"/><path class="cls-1" d="M133.52,124.27a6.25,6.25,0,0,1-3.68,2.71,4.37,4.37,0,0,1-2.2.13h0c-.22,0,.07-.71.27-.65a5.43,5.43,0,0,0,2.14-.37,6,6,0,0,0,3-2.43,4.1,4.1,0,0,0,.81-2.58.7.7,0,0,0-.52-.63c-1.18-.24-2.29.33-3.76,1.46-.26.19-.6.63-.83.61s-.25-.28-.13-.61l1.58-4.34c.62-1.7,1.3-2.65,2.29-3.08a3.27,3.27,0,0,1,.92-.24c.1,0,.2-.23.15-.31a2.06,2.06,0,0,1-.53-1.54c0-.38.47-.83.51-.5a1.54,1.54,0,0,0,1.8,1.43c.22,0,.35.17.26.53s-.43.81-.68.81c-1,0-2.86-.08-3.72,2l-1.53,4.22c-.05.16,0,.26.13.18,1.6-1.17,2.74-1.66,3.91-1.48a1.06,1.06,0,0,1,.8.71,4.46,4.46,0,0,1-.42,2.92A6.39,6.39,0,0,1,133.52,124.27Z"/><path class="cls-1" d="M147.84,127.65c-1.12.47-1.67-.35-1.11-2,.22-.67.63-1.56.91-2.23a28.35,28.35,0,0,0,1.6-4c.28-1.24-.71-.84-1.31-.35a34.57,34.57,0,0,0-3.25,3.06.55.55,0,0,0-.09.14l-2.53,7c-.29.79-.94.79-.65,0l2.18-6c0-.06,0-.08-.06,0-1.22,1.25-2.28,2.37-3.54,3.71-.2.22-.37.22-.41,0s.27-.73.48-1c1.21-1.68,2.29-3.3,3.27-4.92a8.43,8.43,0,0,0,.9-1.89c.35-1.11-.65-1-1.17-1-.37,0-.11-.92.3-1a1.83,1.83,0,0,1,1.19.11c.39.26.46,1,.19,1.76a10,10,0,0,1-1.11,2.27c-.66,1.06-1.36,2.09-2,3.1-.06.09,0,.19.06.11.75-.8,1.42-1.47,2.29-2.34a.32.32,0,0,0,.1-.14l2.66-7.32c.29-.79.94-.79.65,0L145,121.06s0,.08,0,0c.9-.83,1.65-1.64,2.9-2.68a2.47,2.47,0,0,1,1.33-.65c.6-.06.81.47.69,1.32a22.36,22.36,0,0,1-1.62,4.4c-.28.65-.65,1.46-.88,2.07-.35,1-.08,1.42.54,1.18a4.3,4.3,0,0,0,1.81-1.26c.31-.29.41.14.11.49A5.86,5.86,0,0,1,147.84,127.65Z"/><path class="cls-1" d="M163.87,112.61a1.36,1.36,0,0,1-1,.38h-1.56a.19.19,0,0,0-.12.06,17.88,17.88,0,0,0-4.54,6.84c-.93,2.94.56,3.36,1.94,3.33.54,0,.05,1.35-.46,1.35a2.47,2.47,0,0,1-2-.67c-.64-.65-.78-2-.28-3.59a17.15,17.15,0,0,1,4.75-7.19s0-.11,0-.11h-4.25c-.32,0,0-.81.29-.81h4.9a.2.2,0,0,0,.08,0,9.1,9.1,0,0,1,2.39-1.62c.3-.12.58-.08.65.24A2.28,2.28,0,0,1,163.87,112.61Zm-.07-1.4a4.85,4.85,0,0,0-1.52.89s-.06.1,0,.1h1a.9.9,0,0,0,.55-.24C164.24,111.53,164.18,111.11,163.8,111.21Z"/><path class="cls-1" d="M23.41,75.22a5.48,5.48,0,0,0-.88-.07H20.78a5.45,5.45,0,0,0-.87.07q-.22-.77-.63-1.83t-.87-2.25l-1-2.37c-.33-.81-.64-1.57-.93-2.3l-2.14,0H10.18l-2,0q-1.05,2.58-1.91,4.9c-.57,1.56-1,2.84-1.29,3.85a9.22,9.22,0,0,0-1.22-.07,9.22,9.22,0,0,0-1.22.07q2.67-5.77,5.21-11.48t5.12-11.62h.63c.52,1.28,1.1,2.66,1.71,4.14s1.24,3,1.88,4.5L19,65.29c.63,1.49,1.23,2.88,1.79,4.17s1.07,2.44,1.52,3.45S23.12,74.69,23.41,75.22ZM8.79,65l1.78,0,1.78,0H14.2L16.05,65l-3.66-8.39Z"/><path class="cls-1" d="M27.83,67.43a8.52,8.52,0,0,1,.73-3.69,7.4,7.4,0,0,1,1.89-2.56,7.71,7.71,0,0,1,2.69-1.49,10.3,10.3,0,0,1,3.11-.48,10.86,10.86,0,0,1,3.25.45,5.69,5.69,0,0,1,2.06,1,9.79,9.79,0,0,0-.41,1c-.12.36-.23.74-.32,1.13h-.26a5,5,0,0,0-.63-.87,5.46,5.46,0,0,0-.94-.83,5.23,5.23,0,0,0-1.2-.62,4,4,0,0,0-1.45-.25,5.62,5.62,0,0,0-2.56.54A4.75,4.75,0,0,0,32,62.32a6.47,6.47,0,0,0-1,2.26,12,12,0,0,0-.31,2.82,7.83,7.83,0,0,0,1.45,5.13,5.24,5.24,0,0,0,4.25,1.73,5.47,5.47,0,0,0,1.36-.18,8.4,8.4,0,0,0,1.35-.49,7.44,7.44,0,0,0,1.24-.75,5.91,5.91,0,0,0,1-.92l.17.1a9.58,9.58,0,0,0-.2,1.61A9.23,9.23,0,0,1,38.9,75a8.54,8.54,0,0,1-3,.56A10.39,10.39,0,0,1,33,75.14a7,7,0,0,1-4.46-3.91A9.17,9.17,0,0,1,27.83,67.43Z"/><path class="cls-1" d="M46.81,67.43a8.67,8.67,0,0,1,.72-3.69,7.4,7.4,0,0,1,4.59-4.05,10.19,10.19,0,0,1,3.1-.48,10.86,10.86,0,0,1,3.25.45,5.52,5.52,0,0,1,2.06,1,9.79,9.79,0,0,0-.41,1c-.12.36-.22.74-.31,1.13h-.27a4.88,4.88,0,0,0-.62-.87,5.87,5.87,0,0,0-.94-.83,5.52,5.52,0,0,0-1.21-.62,4,4,0,0,0-1.45-.25,5.65,5.65,0,0,0-2.56.54A4.83,4.83,0,0,0,51,62.32a6.47,6.47,0,0,0-1,2.26,12,12,0,0,0-.31,2.82,7.83,7.83,0,0,0,1.45,5.13,5.26,5.26,0,0,0,4.26,1.73,5.34,5.34,0,0,0,1.35-.18,8.4,8.4,0,0,0,1.35-.49,7.05,7.05,0,0,0,1.24-.75,6,6,0,0,0,1-.92l.16.1a9.57,9.57,0,0,0-.19,1.61A9.23,9.23,0,0,1,57.88,75a8.6,8.6,0,0,1-3.06.56A10.5,10.5,0,0,1,52,75.14a7,7,0,0,1-2.59-1.39,7.08,7.08,0,0,1-1.86-2.52A9,9,0,0,1,46.81,67.43Z"/><path class="cls-1" d="M65.55,67.89a9.63,9.63,0,0,1,1.93-6.37,6.92,6.92,0,0,1,5.63-2.31,7.72,7.72,0,0,1,3,.55,6.48,6.48,0,0,1,2.13,1.45,5.9,5.9,0,0,1,1.27,2.13A8.2,8.2,0,0,1,79.94,66c0,.22,0,.43,0,.64s0,.42,0,.64l-3.53-.06c-1.17,0-2.34,0-3.53,0-.73,0-1.45,0-2.16,0l-2.16.06a2.85,2.85,0,0,0,0,.5v.43a7.6,7.6,0,0,0,.38,2.41,5.58,5.58,0,0,0,1.11,1.93,5.27,5.27,0,0,0,1.78,1.28,5.87,5.87,0,0,0,2.44.48,5.47,5.47,0,0,0,1.36-.18,8.4,8.4,0,0,0,1.35-.49,7.44,7.44,0,0,0,1.24-.75,5.91,5.91,0,0,0,1-.92l.17.1-.2,1.61A9.23,9.23,0,0,1,76.62,75a8.54,8.54,0,0,1-3.05.56A9.12,9.12,0,0,1,70.32,75a7.13,7.13,0,0,1-2.54-1.58A6.93,6.93,0,0,1,66.13,71,8,8,0,0,1,65.55,67.89Zm7.62-7.62a3.66,3.66,0,0,0-2.06.56,4.88,4.88,0,0,0-1.39,1.4,6.86,6.86,0,0,0-.82,1.85,10,10,0,0,0-.35,1.9l2.13.06c.74,0,1.46,0,2.16,0s1.47,0,2.21,0L77.23,66a12.5,12.5,0,0,0-.15-1.88,5.57,5.57,0,0,0-.59-1.85,3.94,3.94,0,0,0-1.24-1.42A3.55,3.55,0,0,0,73.17,60.27Z"/><path class="cls-1" d="M86.22,72.88a5.46,5.46,0,0,0,.83.74,4.9,4.9,0,0,0,1.09.58,3.74,3.74,0,0,0,1.3.23,3.79,3.79,0,0,0,1.21-.2,3.37,3.37,0,0,0,1-.56,2.56,2.56,0,0,0,.71-.93,3,3,0,0,0,.26-1.28,2,2,0,0,0-.58-1.57A4.52,4.52,0,0,0,90.63,69a14.31,14.31,0,0,0-1.88-.61,8.46,8.46,0,0,1-1.88-.74,4.53,4.53,0,0,1-1.44-1.28,3.63,3.63,0,0,1-.57-2.17,5.39,5.39,0,0,1,.36-2,4.43,4.43,0,0,1,1-1.57,5.17,5.17,0,0,1,1.72-1,6.75,6.75,0,0,1,2.34-.38,5.63,5.63,0,0,1,2.06.33c.57.22,1.1.42,1.61.6a6.53,6.53,0,0,0-.5,1.22,11,11,0,0,0-.3,1.12h-.39a3.15,3.15,0,0,0-1-1.42,2.82,2.82,0,0,0-1.88-.62,3.11,3.11,0,0,0-1,.16,2.77,2.77,0,0,0-.89.49,2.65,2.65,0,0,0-.92,2.12,2.18,2.18,0,0,0,.58,1.63,3.94,3.94,0,0,0,1.43.91,16.08,16.08,0,0,0,1.88.58,7.92,7.92,0,0,1,1.88.69,4.09,4.09,0,0,1,1.44,1.24,3.63,3.63,0,0,1,.58,2.17,4.55,4.55,0,0,1-.42,1.89A5.26,5.26,0,0,1,93.29,74a5.48,5.48,0,0,1-1.87,1.16,7,7,0,0,1-2.47.41,9.11,9.11,0,0,1-2.54-.3,8.08,8.08,0,0,1-1.72-.69,8.92,8.92,0,0,0,.41-1.17,4.85,4.85,0,0,0,.22-1.24h.39A3.77,3.77,0,0,0,86.22,72.88Z"/><path class="cls-1" d="M101.54,72.88a4.78,4.78,0,0,0,1.91,1.32,3.74,3.74,0,0,0,1.3.23,3.79,3.79,0,0,0,1.21-.2,3.37,3.37,0,0,0,1-.56,2.56,2.56,0,0,0,.71-.93,2.9,2.9,0,0,0,.26-1.28,2.07,2.07,0,0,0-.57-1.57,4.69,4.69,0,0,0-1.44-.89,14.31,14.31,0,0,0-1.88-.61,8.46,8.46,0,0,1-1.88-.74,4.53,4.53,0,0,1-1.44-1.28,3.63,3.63,0,0,1-.57-2.17,5.39,5.39,0,0,1,.36-2,4.32,4.32,0,0,1,1.06-1.57,5,5,0,0,1,1.71-1,6.75,6.75,0,0,1,2.34-.38,5.69,5.69,0,0,1,2.07.33c.56.22,1.09.42,1.6.6a7.29,7.29,0,0,0-.5,1.22,11,11,0,0,0-.3,1.12h-.39a3.2,3.2,0,0,0-1-1.42,2.86,2.86,0,0,0-1.88-.62,3.17,3.17,0,0,0-1,.16,2.77,2.77,0,0,0-.89.49,2.65,2.65,0,0,0-.92,2.12,2.18,2.18,0,0,0,.58,1.63,3.94,3.94,0,0,0,1.43.91,16.08,16.08,0,0,0,1.88.58,7.77,7.77,0,0,1,1.88.69,4,4,0,0,1,1.44,1.24,3.56,3.56,0,0,1,.58,2.17,4.7,4.7,0,0,1-.41,1.89,5.42,5.42,0,0,1-3.06,2.82,7,7,0,0,1-2.47.41,9.16,9.16,0,0,1-2.54-.3,8.08,8.08,0,0,1-1.72-.69,8.92,8.92,0,0,0,.41-1.17,4.44,4.44,0,0,0,.22-1.24H101A3.46,3.46,0,0,0,101.54,72.88Z"/><path class="cls-1" d="M115.15,67.43a9.25,9.25,0,0,1,.71-3.81,7.07,7.07,0,0,1,1.86-2.54,7.47,7.47,0,0,1,2.59-1.42,9.35,9.35,0,0,1,5.73,0,7.47,7.47,0,0,1,2.57,1.42,7.21,7.21,0,0,1,1.87,2.54,10.58,10.58,0,0,1,0,7.62,7.12,7.12,0,0,1-1.87,2.54A6.75,6.75,0,0,1,126,75.15a10.46,10.46,0,0,1-5.73,0,6.75,6.75,0,0,1-2.59-1.37,7,7,0,0,1-1.86-2.54A9.22,9.22,0,0,1,115.15,67.43Zm2.9,0a14.4,14.4,0,0,0,.25,2.67,7.4,7.4,0,0,0,.84,2.3,4.6,4.6,0,0,0,1.59,1.6,5.34,5.34,0,0,0,4.88,0,4.49,4.49,0,0,0,1.58-1.6,6.93,6.93,0,0,0,.84-2.3,13.59,13.59,0,0,0,.25-2.67,13.74,13.74,0,0,0-.25-2.67,7,7,0,0,0-.84-2.3,4.49,4.49,0,0,0-1.58-1.6,5.34,5.34,0,0,0-4.88,0,4.6,4.6,0,0,0-1.59,1.6,7.49,7.49,0,0,0-.84,2.3A14.57,14.57,0,0,0,118.05,67.43Z"/><path class="cls-1" d="M144.24,61.89a3,3,0,0,0-1-.17,2.83,2.83,0,0,0-1.42.36,3.38,3.38,0,0,0-1.05,1,4.49,4.49,0,0,0-.66,1.45,6.53,6.53,0,0,0-.23,1.8v3.63c0,1.47,0,2.6,0,3.38a17.33,17.33,0,0,0,.12,1.9,11.67,11.67,0,0,0-1.32-.07,12.43,12.43,0,0,0-1.39.07c.07-.75.11-1.77.12-3s0-2.87,0-4.74V66.37c0-.85,0-1.84,0-3s-.05-2.41-.12-3.87l.7.12a5.09,5.09,0,0,0,.69.05,4.7,4.7,0,0,0,.63-.05l.69-.12c-.09.8-.14,1.42-.15,1.88s0,.91,0,1.32l.07,0q1.95-3.57,4.36-3.57a3.77,3.77,0,0,1,.51,0,2.35,2.35,0,0,1,.54.16,4,4,0,0,0-.2,1.21c0,.54,0,1,0,1.46l-.23.17A1.47,1.47,0,0,0,144.24,61.89Z"/><path class="cls-1" d="M155.61,75.25c-.25-.59-.56-1.36-.94-2.31s-.8-1.94-1.24-3-.89-2.12-1.36-3.21-.89-2.11-1.3-3.06l-1.07-2.53L149,59.54l.79.12a5.81,5.81,0,0,0,.72.05,6,6,0,0,0,.73-.05l.79-.12q1,3.18,2.28,6.27T157,72.22q1.38-2.91,2.66-6.21c.84-2.2,1.6-4.35,2.26-6.47a3.55,3.55,0,0,0,2.17,0c-.15.31-.4.83-.74,1.57l-1.22,2.64c-.47,1-1,2.16-1.55,3.4L158.82,71l-1.73,3.89c-.57,1.29-1.1,2.51-1.58,3.67s-.91,2.2-1.27,3.13-.64,1.68-.81,2.23a3.81,3.81,0,0,0-2.25,0A66.8,66.8,0,0,0,155.61,75.25Z"/><path class="cls-1" d="M1.73,21.8a5.54,5.54,0,0,0,2.59,1.91A5.56,5.56,0,0,0,6.24,24a4.76,4.76,0,0,0,2-.38,4.49,4.49,0,0,0,1.49-1,4.53,4.53,0,0,0,.94-1.52A5.2,5.2,0,0,0,11,19.24a3.53,3.53,0,0,0-.78-2.41,6.59,6.59,0,0,0-1.93-1.49,23.89,23.89,0,0,0-2.49-1.08A13.15,13.15,0,0,1,3.27,13a6.59,6.59,0,0,1-1.93-1.9A5.45,5.45,0,0,1,.56,8a6.19,6.19,0,0,1,.5-2.52,5.46,5.46,0,0,1,1.43-2A6.85,6.85,0,0,1,4.75,2.24a9.17,9.17,0,0,1,3-.46,8.89,8.89,0,0,1,2.74.38,7,7,0,0,1,2.15,1.17,7,7,0,0,0-.5,1.19q-.19.63-.39,1.59h-.4a7.72,7.72,0,0,0-.45-1,3.78,3.78,0,0,0-.76-1A4,4,0,0,0,9,3.32,3.66,3.66,0,0,0,7.39,3a4.71,4.71,0,0,0-1.7.3,4.16,4.16,0,0,0-1.35.84,3.63,3.63,0,0,0-.89,1.31,4.2,4.2,0,0,0-.31,1.64,3.6,3.6,0,0,0,.77,2.45A6.79,6.79,0,0,0,5.84,11a18.88,18.88,0,0,0,2.49,1.09,14.23,14.23,0,0,1,2.49,1.17,6.32,6.32,0,0,1,1.93,1.78A4.92,4.92,0,0,1,13.53,18,7.71,7.71,0,0,1,13,20.86a7,7,0,0,1-1.59,2.36,7.14,7.14,0,0,1-2.54,1.55,10,10,0,0,1-3.41.54,8.59,8.59,0,0,1-3.32-.54A9.27,9.27,0,0,1,0,23.53a7.09,7.09,0,0,0,.41-1.37c.08-.41.15-.93.22-1.57H1A7.31,7.31,0,0,0,1.73,21.8Z"/><path class="cls-1" d="M20,19.9c0-1.17,0-2.16.05-3s.05-1.64.05-2.46,0-1.6,0-2.5,0-1.82,0-2.74a7.21,7.21,0,0,0,1.39.16,7.11,7.11,0,0,0,1.35-.16c-.11,1.32-.19,2.76-.25,4.34s-.08,3.18-.08,4.83a8.73,8.73,0,0,0,.3,2.62,3.71,3.71,0,0,0,.72,1.37,3.61,3.61,0,0,0,1.17.88,3.8,3.8,0,0,0,1.67.34A4.05,4.05,0,0,0,28.61,23,3.58,3.58,0,0,0,30,21.48c.16-.37.28-.69.37-.95a5.33,5.33,0,0,0,.21-1.06,15.49,15.49,0,0,0,.1-1.78c0-.75,0-1.77,0-3.07V11.85c0-.49,0-.95,0-1.39s0-.86-.05-1.25l.69.11a3.91,3.91,0,0,0,.7,0,3.87,3.87,0,0,0,.69,0l.66-.11c-.11,1.71-.18,3.37-.2,5s0,3.29,0,5.07c0,1,0,2,0,2.9s.06,1.86.1,2.74q-.66-.06-1.29-.06c-.41,0-.84,0-1.28.06,0-.2,0-.4.05-.63s0-.45,0-.69V22.14h-.06a5.67,5.67,0,0,1-2.21,2.33,6.08,6.08,0,0,1-2.94.74,5.65,5.65,0,0,1-4-1.37A5.11,5.11,0,0,1,20,19.9Z"/><path class="cls-1" d="M50.62,11.86A3.14,3.14,0,0,0,48,10.59,4,4,0,0,0,44.6,12a6.48,6.48,0,0,0-1.07,4v2.81c0,1,0,2,0,3.12s.1,2.07.21,2.95c-.5,0-1-.06-1.48-.06s-1,0-1.49.06C40.93,24,41,23,41,21.93s.05-2.13.05-3.12V15.38c0-1,0-2-.05-3.12s-.11-2.11-.22-3a8.81,8.81,0,0,0,1.49.16,3,3,0,0,0,.57,0l.75-.11c-.07.88-.1,1.76-.1,2.64h.06a7,7,0,0,1,2.21-2.2,5.93,5.93,0,0,1,3.07-.77,7.14,7.14,0,0,1,1.87.26,4.4,4.4,0,0,1,2.93,2.66,7.15,7.15,0,0,1,.48,2.82c0,1,0,1.92-.06,2.92S54,19.6,54,20.72v2.15c0,.35,0,.7,0,1s0,.66.05,1c-.44,0-.9-.06-1.39-.06s-.91,0-1.35.06c0-1.14.09-2.32.15-3.53s.08-2.45.08-3.73v-2A6.17,6.17,0,0,0,50.62,11.86Z"/><path class="cls-1" d="M71.45,11.86a3.14,3.14,0,0,0-2.64-1.27A4,4,0,0,0,65.42,12a6.55,6.55,0,0,0-1.07,4v2.81c0,1,0,2,.05,3.12s.1,2.07.21,2.95c-.5,0-1-.06-1.48-.06s-1,0-1.49.06c.11-.88.19-1.86.22-2.95s0-2.13,0-3.12V15.38c0-1,0-2,0-3.12s-.11-2.11-.22-3a8.81,8.81,0,0,0,1.49.16,3,3,0,0,0,.58,0l.74-.11c-.07.88-.1,1.76-.1,2.64h.07a6.82,6.82,0,0,1,2.21-2.2,5.9,5.9,0,0,1,3.07-.77,7.13,7.13,0,0,1,1.86.26,4.53,4.53,0,0,1,1.7.91A4.64,4.64,0,0,1,74.5,11.8,7.15,7.15,0,0,1,75,14.62c0,1,0,1.92-.07,2.92s-.07,2.06-.07,3.18v2.15c0,.35,0,.7,0,1s0,.66,0,1c-.44,0-.9-.06-1.39-.06s-.91,0-1.35.06c0-1.14.09-2.32.15-3.53s.08-2.45.08-3.73v-2A6.25,6.25,0,0,0,71.45,11.86Z"/><path class="cls-1" d="M87.29,24.92c-.25-.6-.56-1.37-.94-2.31s-.8-1.95-1.24-3-.89-2.11-1.36-3.2l-1.3-3.07-1.07-2.53-.69-1.61.79.11a4.36,4.36,0,0,0,.72,0,4.4,4.4,0,0,0,.73,0l.79-.11q1,3.16,2.28,6.27c.83,2.06,1.71,4.2,2.64,6.4.92-1.94,1.81-4,2.65-6.21s1.61-4.35,2.27-6.46a3.76,3.76,0,0,0,2.17,0c-.15.31-.4.83-.74,1.56l-1.22,2.65c-.47,1-1,2.15-1.55,3.39L90.5,20.64l-1.73,3.9c-.57,1.28-1.1,2.5-1.58,3.66s-.91,2.2-1.27,3.13-.64,1.68-.81,2.23a4,4,0,0,0-2.25,0A66.7,66.7,0,0,0,87.29,24.92Z"/><path class="cls-1" d="M102.8,21.8a5.54,5.54,0,0,0,2.59,1.91,5.52,5.52,0,0,0,1.92.31,4.76,4.76,0,0,0,2-.38,4.37,4.37,0,0,0,2.42-2.54,5.2,5.2,0,0,0,.33-1.86,3.52,3.52,0,0,0-.77-2.41,6.59,6.59,0,0,0-1.93-1.49,23.89,23.89,0,0,0-2.49-1.08A13.15,13.15,0,0,1,104.34,13a6.63,6.63,0,0,1-1.94-1.9,5.53,5.53,0,0,1-.77-3.1,6.19,6.19,0,0,1,.49-2.52,5.49,5.49,0,0,1,1.44-2,6.85,6.85,0,0,1,2.26-1.29,9.17,9.17,0,0,1,3-.46,8.89,8.89,0,0,1,2.74.38,6.9,6.9,0,0,1,2.14,1.17,7.82,7.82,0,0,0-.49,1.19c-.13.42-.26,1-.4,1.59h-.39a7.72,7.72,0,0,0-.45-1,4,4,0,0,0-.76-1A4.23,4.23,0,0,0,110,3.32,3.62,3.62,0,0,0,108.46,3a4.67,4.67,0,0,0-1.7.3,4.05,4.05,0,0,0-1.35.84,3.63,3.63,0,0,0-.89,1.31,4.21,4.21,0,0,0-.32,1.64A3.6,3.6,0,0,0,105,9.54a6.79,6.79,0,0,0,1.93,1.5,18.88,18.88,0,0,0,2.49,1.09,14.23,14.23,0,0,1,2.49,1.17,6.32,6.32,0,0,1,1.93,1.78A4.92,4.92,0,0,1,114.6,18a7.52,7.52,0,0,1-.55,2.87,6.85,6.85,0,0,1-1.58,2.36,7.14,7.14,0,0,1-2.54,1.55,10.06,10.06,0,0,1-3.42.54,8.54,8.54,0,0,1-3.31-.54,9.27,9.27,0,0,1-2.13-1.24,7.88,7.88,0,0,0,.41-1.37c.08-.41.15-.93.22-1.57h.39A6.67,6.67,0,0,0,102.8,21.8Z"/><path class="cls-1" d="M121.46,4.46a1.61,1.61,0,0,1,.5-1.18,1.65,1.65,0,0,1,2.37,0,1.65,1.65,0,0,1,0,2.37,1.65,1.65,0,0,1-2.37,0A1.62,1.62,0,0,1,121.46,4.46Zm.6,10.83c.08-1,.15-2,.2-3.12s.06-2.1,0-3.06a8.7,8.7,0,0,0,1.47.29,9,9,0,0,0,1.49-.05c-.19.93-.34,1.94-.46,3s-.22,2.11-.29,3.1l-.28,3.42c-.08,1-.14,2-.2,3.11s-.06,2.08,0,3c-.5-.09-1-.15-1.47-.19s-1-.05-1.49-.05c.18-.87.33-1.84.45-2.93s.22-2.12.3-3.1Z"/><path class="cls-1" d="M143.87,21.75a8.55,8.55,0,0,1-.71,1.14A6,6,0,0,1,142,24a5.56,5.56,0,0,1-1.6.86,6.39,6.39,0,0,1-2.15.33,7.24,7.24,0,0,1-2.46-.43,5.49,5.49,0,0,1-2.14-1.4,7.19,7.19,0,0,1-1.52-2.51,10.57,10.57,0,0,1-.58-3.68,9.7,9.7,0,0,1,.63-3.66,8,8,0,0,1,1.63-2.59,6.56,6.56,0,0,1,2.28-1.55,6.83,6.83,0,0,1,2.56-.51,5.1,5.1,0,0,1,5.08,3.3h.07V8.94c0-.83,0-1.67,0-2.52s0-1.66,0-2.43,0-1.49,0-2.17,0-1.29-.05-1.82l.76.12a6.11,6.11,0,0,0,.73.05,5.52,5.52,0,0,0,.71-.05l.77-.12c-.06.7-.12,1.72-.16,3.05s-.08,2.8-.12,4.41-.06,3.25-.08,5,0,3.24,0,4.65,0,2.88,0,4.09,0,2.46.07,3.73q-.66-.06-1.29-.06c-.4,0-.81,0-1.25.06l.1-3.13Zm-9.37-4.36a10.77,10.77,0,0,0,.41,3.27A6,6,0,0,0,136,22.72a3.32,3.32,0,0,0,1.46,1.07,4.72,4.72,0,0,0,1.62.3,3.74,3.74,0,0,0,2.21-.64,5.23,5.23,0,0,0,1.54-1.69,8.09,8.09,0,0,0,.89-2.36,13.16,13.16,0,0,0,.28-2.64,8.12,8.12,0,0,0-1.22-4.83,4.2,4.2,0,0,0-3.6-1.67,3.75,3.75,0,0,0-2.06.55,4.24,4.24,0,0,0-1.45,1.52,7.11,7.11,0,0,0-.86,2.27A13.07,13.07,0,0,0,134.5,17.39Z"/><path class="cls-1" d="M152.19,17.56a9.62,9.62,0,0,1,1.93-6.37,6.9,6.9,0,0,1,5.62-2.31,7.65,7.65,0,0,1,3,.54,6.28,6.28,0,0,1,2.13,1.45A5.76,5.76,0,0,1,166.16,13a8,8,0,0,1,.41,2.61c0,.22,0,.43,0,.64s0,.43-.05.65L163,16.83c-1.17,0-2.35,0-3.53,0-.73,0-1.45,0-2.17,0l-2.16.07a2.93,2.93,0,0,0,0,.49v.43a7.56,7.56,0,0,0,.38,2.41,5.47,5.47,0,0,0,1.1,1.93,5.34,5.34,0,0,0,1.79,1.29,5.81,5.81,0,0,0,2.44.47,4.92,4.92,0,0,0,1.35-.18,7.54,7.54,0,0,0,1.35-.49,7.67,7.67,0,0,0,1.24-.74,6.48,6.48,0,0,0,1-.93l.16.1-.2,1.62a8.74,8.74,0,0,1-2.45,1.35,8.38,8.38,0,0,1-3.06.56,9.39,9.39,0,0,1-3.25-.54,7.13,7.13,0,0,1-4.19-4.05A8.09,8.09,0,0,1,152.19,17.56Zm7.62-7.63a3.64,3.64,0,0,0-2.06.56,4.79,4.79,0,0,0-1.39,1.41,6.44,6.44,0,0,0-.82,1.85,9.27,9.27,0,0,0-.35,1.89l2.13.07,2.16,0,2.21,0,2.18-.07a12.6,12.6,0,0,0-.15-1.88,5.91,5.91,0,0,0-.6-1.85,3.9,3.9,0,0,0-1.23-1.42A3.55,3.55,0,0,0,159.81,9.93Z"/></g></g></svg>