<svg xmlns="http://www.w3.org/2000/svg" viewBox="0 0 166.57 81.72"><defs><style>.cls-1{fill:#231815;}</style></defs><g id="レイヤー_2" data-name="レイヤー 2"><g id="レイヤー_1-2" data-name="レイヤー 1"><path class="cls-1" d="M1.73,21.8a5.54,5.54,0,0,0,2.59,1.91A5.56,5.56,0,0,0,6.24,24a4.76,4.76,0,0,0,2-.38,4.49,4.49,0,0,0,1.49-1,4.53,4.53,0,0,0,.94-1.52A5.2,5.2,0,0,0,11,19.24a3.53,3.53,0,0,0-.78-2.41,6.59,6.59,0,0,0-1.93-1.49,23.89,23.89,0,0,0-2.49-1.08A13.15,13.15,0,0,1,3.27,13a6.59,6.59,0,0,1-1.93-1.9A5.45,5.45,0,0,1,.56,8a6.19,6.19,0,0,1,.5-2.52,5.46,5.46,0,0,1,1.43-2A6.85,6.85,0,0,1,4.75,2.24a9.17,9.17,0,0,1,3-.46,8.89,8.89,0,0,1,2.74.38,7,7,0,0,1,2.15,1.17,7,7,0,0,0-.5,1.19q-.19.63-.39,1.59h-.4a7.72,7.72,0,0,0-.45-1,3.78,3.78,0,0,0-.76-1A4,4,0,0,0,9,3.32,3.66,3.66,0,0,0,7.39,3a4.71,4.71,0,0,0-1.7.3,4.16,4.16,0,0,0-1.35.84,3.63,3.63,0,0,0-.89,1.31,4.2,4.2,0,0,0-.31,1.64,3.6,3.6,0,0,0,.77,2.45A6.79,6.79,0,0,0,5.84,11a18.88,18.88,0,0,0,2.49,1.09,14.23,14.23,0,0,1,2.49,1.17,6.32,6.32,0,0,1,1.93,1.78A4.92,4.92,0,0,1,13.53,18,7.71,7.71,0,0,1,13,20.86a7,7,0,0,1-1.59,2.36,7.14,7.14,0,0,1-2.54,1.55,10,10,0,0,1-3.41.54,8.59,8.59,0,0,1-3.32-.54A9.27,9.27,0,0,1,0,23.53a7.09,7.09,0,0,0,.41-1.37c.08-.41.15-.93.22-1.57H1A7.31,7.31,0,0,0,1.73,21.8Z"/><path class="cls-1" d="M20,19.9c0-1.17,0-2.16.05-3s.05-1.64.05-2.46,0-1.6,0-2.5,0-1.82,0-2.74a7.21,7.21,0,0,0,1.39.16,7.11,7.11,0,0,0,1.35-.16c-.11,1.32-.19,2.76-.25,4.34s-.08,3.18-.08,4.83a8.73,8.73,0,0,0,.3,2.62,3.71,3.71,0,0,0,.72,1.37,3.61,3.61,0,0,0,1.17.88,3.8,3.8,0,0,0,1.67.34A4.05,4.05,0,0,0,28.61,23,3.58,3.58,0,0,0,30,21.48c.16-.37.28-.69.37-.95a5.33,5.33,0,0,0,.21-1.06,15.49,15.49,0,0,0,.1-1.78c0-.75,0-1.77,0-3.07V11.85c0-.49,0-.95,0-1.39s0-.86-.05-1.25l.69.11a3.91,3.91,0,0,0,.7,0,3.87,3.87,0,0,0,.69,0l.66-.11c-.11,1.71-.18,3.37-.2,5s0,3.29,0,5.07c0,1,0,2,0,2.9s.06,1.86.1,2.74q-.66-.06-1.29-.06c-.41,0-.84,0-1.28.06,0-.2,0-.4.05-.63s0-.45,0-.69V22.14h-.06a5.67,5.67,0,0,1-2.21,2.33,6.08,6.08,0,0,1-2.94.74,5.65,5.65,0,0,1-4-1.37A5.11,5.11,0,0,1,20,19.9Z"/><path class="cls-1" d="M50.62,11.86A3.14,3.14,0,0,0,48,10.59,4,4,0,0,0,44.6,12a6.48,6.48,0,0,0-1.07,4v2.81c0,1,0,2,0,3.12s.1,2.07.21,2.95c-.5,0-1-.06-1.48-.06s-1,0-1.49.06C40.93,24,41,23,41,21.93s.05-2.13.05-3.12V15.38c0-1,0-2-.05-3.12s-.11-2.11-.22-3a8.81,8.81,0,0,0,1.49.16,3,3,0,0,0,.57,0l.75-.11c-.07.88-.1,1.76-.1,2.64h.06a7,7,0,0,1,2.21-2.2,5.93,5.93,0,0,1,3.07-.77,7.14,7.14,0,0,1,1.87.26,4.4,4.4,0,0,1,2.93,2.66,7.15,7.15,0,0,1,.48,2.82c0,1,0,1.92-.06,2.92S54,19.6,54,20.72v2.15c0,.35,0,.7,0,1s0,.66.05,1c-.44,0-.9-.06-1.39-.06s-.91,0-1.35.06c0-1.14.09-2.32.15-3.53s.08-2.45.08-3.73v-2A6.17,6.17,0,0,0,50.62,11.86Z"/><path class="cls-1" d="M71.45,11.86a3.14,3.14,0,0,0-2.64-1.27A4,4,0,0,0,65.42,12a6.55,6.55,0,0,0-1.07,4v2.81c0,1,0,2,.05,3.12s.1,2.07.21,2.95c-.5,0-1-.06-1.48-.06s-1,0-1.49.06c.11-.88.19-1.86.22-2.95s0-2.13,0-3.12V15.38c0-1,0-2,0-3.12s-.11-2.11-.22-3a8.81,8.81,0,0,0,1.49.16,3,3,0,0,0,.58,0l.74-.11c-.07.88-.1,1.76-.1,2.64h.07a6.82,6.82,0,0,1,2.21-2.2,5.9,5.9,0,0,1,3.07-.77,7.13,7.13,0,0,1,1.86.26,4.53,4.53,0,0,1,1.7.91A4.64,4.64,0,0,1,74.5,11.8,7.15,7.15,0,0,1,75,14.62c0,1,0,1.92-.07,2.92s-.07,2.06-.07,3.18v2.15c0,.35,0,.7,0,1s0,.66,0,1c-.44,0-.9-.06-1.39-.06s-.91,0-1.35.06c0-1.14.09-2.32.15-3.53s.08-2.45.08-3.73v-2A6.25,6.25,0,0,0,71.45,11.86Z"/><path class="cls-1" d="M87.29,24.92c-.25-.6-.56-1.37-.94-2.31s-.8-1.95-1.24-3-.89-2.11-1.36-3.2l-1.3-3.07-1.07-2.53-.69-1.61.79.11a4.36,4.36,0,0,0,.72,0,4.4,4.4,0,0,0,.73,0l.79-.11q1,3.16,2.28,6.27c.83,2.06,1.71,4.2,2.64,6.4.92-1.94,1.81-4,2.65-6.21s1.61-4.35,2.27-6.46a3.76,3.76,0,0,0,2.17,0c-.15.31-.4.83-.74,1.56l-1.22,2.65c-.47,1-1,2.15-1.55,3.39L90.5,20.64l-1.73,3.9c-.57,1.28-1.1,2.5-1.58,3.66s-.91,2.2-1.27,3.13-.64,1.68-.81,2.23a4,4,0,0,0-2.25,0A66.7,66.7,0,0,0,87.29,24.92Z"/><path class="cls-1" d="M102.8,21.8a5.54,5.54,0,0,0,2.59,1.91,5.52,5.52,0,0,0,1.92.31,4.76,4.76,0,0,0,2-.38,4.37,4.37,0,0,0,2.42-2.54,5.2,5.2,0,0,0,.33-1.86,3.52,3.52,0,0,0-.77-2.41,6.59,6.59,0,0,0-1.93-1.49,23.89,23.89,0,0,0-2.49-1.08A13.15,13.15,0,0,1,104.34,13a6.63,6.63,0,0,1-1.94-1.9,5.53,5.53,0,0,1-.77-3.1,6.19,6.19,0,0,1,.49-2.52,5.49,5.49,0,0,1,1.44-2,6.85,6.85,0,0,1,2.26-1.29,9.17,9.17,0,0,1,3-.46,8.89,8.89,0,0,1,2.74.38,6.9,6.9,0,0,1,2.14,1.17,7.82,7.82,0,0,0-.49,1.19c-.13.42-.26,1-.4,1.59h-.39a7.72,7.72,0,0,0-.45-1,4,4,0,0,0-.76-1A4.23,4.23,0,0,0,110,3.32,3.62,3.62,0,0,0,108.46,3a4.67,4.67,0,0,0-1.7.3,4.05,4.05,0,0,0-1.35.84,3.63,3.63,0,0,0-.89,1.31,4.21,4.21,0,0,0-.32,1.64A3.6,3.6,0,0,0,105,9.54a6.79,6.79,0,0,0,1.93,1.5,18.88,18.88,0,0,0,2.49,1.09,14.23,14.23,0,0,1,2.49,1.17,6.32,6.32,0,0,1,1.93,1.78A4.92,4.92,0,0,1,114.6,18a7.52,7.52,0,0,1-.55,2.87,6.85,6.85,0,0,1-1.58,2.36,7.14,7.14,0,0,1-2.54,1.55,10.06,10.06,0,0,1-3.42.54,8.54,8.54,0,0,1-3.31-.54,9.27,9.27,0,0,1-2.13-1.24,7.88,7.88,0,0,0,.41-1.37c.08-.41.15-.93.22-1.57h.39A6.67,6.67,0,0,0,102.8,21.8Z"/><path class="cls-1" d="M121.46,4.46a1.61,1.61,0,0,1,.5-1.18,1.65,1.65,0,0,1,2.37,0,1.65,1.65,0,0,1,0,2.37,1.65,1.65,0,0,1-2.37,0A1.62,1.62,0,0,1,121.46,4.46Zm.6,10.83c.08-1,.15-2,.2-3.12s.06-2.1,0-3.06a8.7,8.7,0,0,0,1.47.29,9,9,0,0,0,1.49-.05c-.19.93-.34,1.94-.46,3s-.22,2.11-.29,3.1l-.28,3.42c-.08,1-.14,2-.2,3.11s-.06,2.08,0,3c-.5-.09-1-.15-1.47-.19s-1-.05-1.49-.05c.18-.87.33-1.84.45-2.93s.22-2.12.3-3.1Z"/><path class="cls-1" d="M143.87,21.75a8.55,8.55,0,0,1-.71,1.14A6,6,0,0,1,142,24a5.56,5.56,0,0,1-1.6.86,6.39,6.39,0,0,1-2.15.33,7.24,7.24,0,0,1-2.46-.43,5.49,5.49,0,0,1-2.14-1.4,7.19,7.19,0,0,1-1.52-2.51,10.57,10.57,0,0,1-.58-3.68,9.7,9.7,0,0,1,.63-3.66,8,8,0,0,1,1.63-2.59,6.56,6.56,0,0,1,2.28-1.55,6.83,6.83,0,0,1,2.56-.51,5.1,5.1,0,0,1,5.08,3.3h.07V8.94c0-.83,0-1.67,0-2.52s0-1.66,0-2.43,0-1.49,0-2.17,0-1.29-.05-1.82l.76.12a6.11,6.11,0,0,0,.73.05,5.52,5.52,0,0,0,.71-.05l.77-.12c-.06.7-.12,1.72-.16,3.05s-.08,2.8-.12,4.41-.06,3.25-.08,5,0,3.24,0,4.65,0,2.88,0,4.09,0,2.46.07,3.73q-.66-.06-1.29-.06c-.4,0-.81,0-1.25.06l.1-3.13Zm-9.37-4.36a10.77,10.77,0,0,0,.41,3.27A6,6,0,0,0,136,22.72a3.32,3.32,0,0,0,1.46,1.07,4.72,4.72,0,0,0,1.62.3,3.74,3.74,0,0,0,2.21-.64,5.23,5.23,0,0,0,1.54-1.69,8.09,8.09,0,0,0,.89-2.36,13.16,13.16,0,0,0,.28-2.64,8.12,8.12,0,0,0-1.22-4.83,4.2,4.2,0,0,0-3.6-1.67,3.75,3.75,0,0,0-2.06.55,4.24,4.24,0,0,0-1.45,1.52,7.11,7.11,0,0,0-.86,2.27A13.07,13.07,0,0,0,134.5,17.39Z"/><path class="cls-1" d="M152.19,17.56a9.62,9.62,0,0,1,1.93-6.37,6.9,6.9,0,0,1,5.62-2.31,7.65,7.65,0,0,1,3,.54,6.28,6.28,0,0,1,2.13,1.45A5.76,5.76,0,0,1,166.16,13a8,8,0,0,1,.41,2.61c0,.22,0,.43,0,.64s0,.43-.05.65L163,16.83c-1.17,0-2.35,0-3.53,0-.73,0-1.45,0-2.17,0l-2.16.07a2.93,2.93,0,0,0,0,.49v.43a7.56,7.56,0,0,0,.38,2.41,5.47,5.47,0,0,0,1.1,1.93,5.34,5.34,0,0,0,1.79,1.29,5.81,5.81,0,0,0,2.44.47,4.92,4.92,0,0,0,1.35-.18,7.54,7.54,0,0,0,1.35-.49,7.67,7.67,0,0,0,1.24-.74,6.48,6.48,0,0,0,1-.93l.16.1-.2,1.62a8.74,8.74,0,0,1-2.45,1.35,8.38,8.38,0,0,1-3.06.56,9.39,9.39,0,0,1-3.25-.54,7.13,7.13,0,0,1-4.19-4.05A8.09,8.09,0,0,1,152.19,17.56Zm7.62-7.63a3.64,3.64,0,0,0-2.06.56,4.79,4.79,0,0,0-1.39,1.41,6.44,6.44,0,0,0-.82,1.85,9.27,9.27,0,0,0-.35,1.89l2.13.07,2.16,0,2.21,0,2.18-.07a12.6,12.6,0,0,0-.15-1.88,5.91,5.91,0,0,0-.6-1.85,3.9,3.9,0,0,0-1.23-1.42A3.55,3.55,0,0,0,159.81,9.93Z"/><path class="cls-1" d="M23.41,73a5.48,5.48,0,0,0-.88-.07H20.78a5.45,5.45,0,0,0-.87.07c-.15-.51-.36-1.12-.63-1.84s-.55-1.46-.87-2.24l-1-2.38c-.33-.8-.64-1.56-.93-2.29l-2.14-.05H10.18l-2,.05q-1.05,2.58-1.91,4.9C5.68,70.74,5.25,72,5,73A9.22,9.22,0,0,0,3.74,73,9.22,9.22,0,0,0,2.52,73q2.67-5.78,5.21-11.49c1.7-3.8,3.4-7.68,5.12-11.61h.63c.52,1.27,1.1,2.65,1.71,4.14s1.24,3,1.88,4.5,1.28,3,1.92,4.52,1.23,2.89,1.79,4.18l1.52,3.45Q23,72.24,23.41,73ZM8.79,62.77c.57,0,1.17,0,1.78,0l1.78,0,1.85,0c.62,0,1.23,0,1.85,0l-3.66-8.38Z"/><path class="cls-1" d="M27.83,65.25a8.6,8.6,0,0,1,.73-3.7A7.59,7.59,0,0,1,30.45,59a7.69,7.69,0,0,1,2.69-1.48A10.3,10.3,0,0,1,36.25,57a10.86,10.86,0,0,1,3.25.45,5.7,5.7,0,0,1,2.06,1,10.71,10.71,0,0,0-.41,1c-.12.37-.23.75-.32,1.14h-.26a4.62,4.62,0,0,0-.63-.87A5.07,5.07,0,0,0,39,59a5.69,5.69,0,0,0-1.2-.63,4.24,4.24,0,0,0-1.45-.24,5.62,5.62,0,0,0-2.56.54A4.72,4.72,0,0,0,32,60.13a6.64,6.64,0,0,0-1,2.26,12,12,0,0,0-.31,2.83,7.83,7.83,0,0,0,1.45,5.13,5.24,5.24,0,0,0,4.25,1.73,5.47,5.47,0,0,0,1.36-.18,7.58,7.58,0,0,0,1.35-.5,7.39,7.39,0,0,0,1.24-.74,6.35,6.35,0,0,0,1-.92l.17.1a9.45,9.45,0,0,0-.2,1.61,9.23,9.23,0,0,1-2.46,1.36,8.54,8.54,0,0,1-3,.56A10,10,0,0,1,33,73a6.77,6.77,0,0,1-2.59-1.38A6.94,6.94,0,0,1,28.54,69,9.12,9.12,0,0,1,27.83,65.25Z"/><path class="cls-1" d="M46.81,65.25a8.75,8.75,0,0,1,.72-3.7A7.75,7.75,0,0,1,49.43,59a7.6,7.6,0,0,1,2.69-1.48,10.19,10.19,0,0,1,3.1-.48,10.86,10.86,0,0,1,3.25.45,5.53,5.53,0,0,1,2.06,1,10.71,10.71,0,0,0-.41,1c-.12.37-.22.75-.31,1.14h-.27a4.55,4.55,0,0,0-.62-.87A5.42,5.42,0,0,0,58,59a6,6,0,0,0-1.21-.63,4.2,4.2,0,0,0-1.45-.24,5.65,5.65,0,0,0-2.56.54A4.8,4.8,0,0,0,51,60.13a6.64,6.64,0,0,0-1,2.26,12,12,0,0,0-.31,2.83,7.83,7.83,0,0,0,1.45,5.13,5.26,5.26,0,0,0,4.26,1.73,5.34,5.34,0,0,0,1.35-.18,7.58,7.58,0,0,0,1.35-.5,7,7,0,0,0,1.24-.74,6.43,6.43,0,0,0,1-.92l.16.1a9.45,9.45,0,0,0-.19,1.61,9.23,9.23,0,0,1-2.46,1.36,8.6,8.6,0,0,1-3.06.56A10.14,10.14,0,0,1,52,73a6.84,6.84,0,0,1-2.59-1.38A7,7,0,0,1,47.52,69,9,9,0,0,1,46.81,65.25Z"/><path class="cls-1" d="M65.55,65.71a9.62,9.62,0,0,1,1.93-6.37A6.92,6.92,0,0,1,73.11,57a7.54,7.54,0,0,1,3,.55A6.33,6.33,0,0,1,78.26,59a5.73,5.73,0,0,1,1.27,2.13,8.19,8.19,0,0,1,.41,2.6c0,.22,0,.44,0,.65s0,.42,0,.64L76.34,65c-1.17,0-2.34,0-3.53,0q-1.09,0-2.16,0l-2.16.07a2.85,2.85,0,0,0,0,.5V66a7.51,7.51,0,0,0,.38,2.41,5.4,5.4,0,0,0,1.11,1.93,5.3,5.3,0,0,0,1.78,1.29,5.87,5.87,0,0,0,2.44.48,5.47,5.47,0,0,0,1.36-.18,7.58,7.58,0,0,0,1.35-.5,7.39,7.39,0,0,0,1.24-.74,6.35,6.35,0,0,0,1-.92l.17.1-.2,1.61a9.23,9.23,0,0,1-2.46,1.36,8.54,8.54,0,0,1-3.05.56,9.35,9.35,0,0,1-3.25-.55,7.13,7.13,0,0,1-2.54-1.58,7,7,0,0,1-1.65-2.46A8,8,0,0,1,65.55,65.71Zm7.62-7.62a3.59,3.59,0,0,0-2.06.56,4.88,4.88,0,0,0-1.39,1.4,6.86,6.86,0,0,0-.82,1.85,10,10,0,0,0-.35,1.9l2.13.06c.74,0,1.46,0,2.16,0s1.47,0,2.21,0l2.18-.06a12.63,12.63,0,0,0-.15-1.89,5.59,5.59,0,0,0-.59-1.84,3.94,3.94,0,0,0-1.24-1.42A3.48,3.48,0,0,0,73.17,58.09Z"/><path class="cls-1" d="M86.22,70.69a5.51,5.51,0,0,0,.83.75,4.5,4.5,0,0,0,1.09.57,3.52,3.52,0,0,0,1.3.23,3.78,3.78,0,0,0,1.21-.19,3.6,3.6,0,0,0,1-.56,2.65,2.65,0,0,0,.71-.93,3.06,3.06,0,0,0,.26-1.29,2,2,0,0,0-.58-1.56,4.35,4.35,0,0,0-1.43-.89,14.29,14.29,0,0,0-1.88-.62,7.6,7.6,0,0,1-1.88-.74,4.5,4.5,0,0,1-1.44-1.27A3.67,3.67,0,0,1,84.86,62a5.34,5.34,0,0,1,.36-2,4.34,4.34,0,0,1,1-1.57,5,5,0,0,1,1.72-1A6.75,6.75,0,0,1,90.33,57a5.63,5.63,0,0,1,2.06.33c.57.22,1.1.42,1.61.59a6.65,6.65,0,0,0-.5,1.23,10.38,10.38,0,0,0-.3,1.12h-.39a3.15,3.15,0,0,0-1-1.42,2.83,2.83,0,0,0-1.88-.63,3.12,3.12,0,0,0-1,.17,2.56,2.56,0,0,0-1.55,1.35A2.84,2.84,0,0,0,87.1,61a2.2,2.2,0,0,0,.58,1.64,4.08,4.08,0,0,0,1.43.91,16.12,16.12,0,0,0,1.88.57,8.4,8.4,0,0,1,1.88.7,4.06,4.06,0,0,1,1.44,1.23,3.69,3.69,0,0,1,.58,2.18,4.47,4.47,0,0,1-.42,1.88,5.3,5.3,0,0,1-1.18,1.67A5.45,5.45,0,0,1,91.42,73a6.8,6.8,0,0,1-2.47.42,9.11,9.11,0,0,1-2.54-.3,8.08,8.08,0,0,1-1.72-.69,8.63,8.63,0,0,0,.41-1.18A4.71,4.71,0,0,0,85.32,70h.39A3.46,3.46,0,0,0,86.22,70.69Z"/><path class="cls-1" d="M101.54,70.69a5,5,0,0,0,.82.75,4.5,4.5,0,0,0,1.09.57,3.52,3.52,0,0,0,1.3.23,3.78,3.78,0,0,0,1.21-.19,3.6,3.6,0,0,0,1-.56,2.65,2.65,0,0,0,.71-.93,2.92,2.92,0,0,0,.26-1.29,2,2,0,0,0-.57-1.56,4.5,4.5,0,0,0-1.44-.89,14.29,14.29,0,0,0-1.88-.62,7.6,7.6,0,0,1-1.88-.74,4.5,4.5,0,0,1-1.44-1.27,3.67,3.67,0,0,1-.57-2.18,5.34,5.34,0,0,1,.36-2,4.24,4.24,0,0,1,1.06-1.57,4.87,4.87,0,0,1,1.71-1,6.75,6.75,0,0,1,2.34-.38,5.69,5.69,0,0,1,2.07.33c.56.22,1.09.42,1.6.59a7.43,7.43,0,0,0-.5,1.23,10.38,10.38,0,0,0-.3,1.12h-.39a3.2,3.2,0,0,0-1-1.42,2.87,2.87,0,0,0-1.88-.63,3.18,3.18,0,0,0-1,.17,2.56,2.56,0,0,0-1.55,1.35,2.84,2.84,0,0,0-.26,1.25,2.2,2.2,0,0,0,.58,1.64,4.08,4.08,0,0,0,1.43.91,16.12,16.12,0,0,0,1.88.57,8.22,8.22,0,0,1,1.88.7,4,4,0,0,1,1.44,1.23,3.62,3.62,0,0,1,.58,2.18,4.62,4.62,0,0,1-.41,1.88A5.34,5.34,0,0,1,106.73,73a6.8,6.8,0,0,1-2.47.42,9.16,9.16,0,0,1-2.54-.3,8.08,8.08,0,0,1-1.72-.69,8.63,8.63,0,0,0,.41-1.18,4.33,4.33,0,0,0,.22-1.23H101A3.2,3.2,0,0,0,101.54,70.69Z"/><path class="cls-1" d="M115.15,65.25a9.22,9.22,0,0,1,.71-3.81,6.9,6.9,0,0,1,1.86-2.54,7.31,7.31,0,0,1,2.59-1.42,9.35,9.35,0,0,1,5.73,0,7.31,7.31,0,0,1,2.57,1.42,7,7,0,0,1,1.87,2.54,10.58,10.58,0,0,1,0,7.62,7.12,7.12,0,0,1-1.87,2.54A6.75,6.75,0,0,1,126,73a10.46,10.46,0,0,1-5.73,0,6.75,6.75,0,0,1-2.59-1.37,7,7,0,0,1-1.86-2.54A9.25,9.25,0,0,1,115.15,65.25Zm2.9,0a14.57,14.57,0,0,0,.25,2.67,7.34,7.34,0,0,0,.84,2.29,4.54,4.54,0,0,0,1.59,1.61,5.34,5.34,0,0,0,4.88,0,4.44,4.44,0,0,0,1.58-1.61,6.87,6.87,0,0,0,.84-2.29,14.44,14.44,0,0,0,0-5.35,7,7,0,0,0-.84-2.29,4.49,4.49,0,0,0-1.58-1.6,4.7,4.7,0,0,0-6.47,1.6,7.43,7.43,0,0,0-.84,2.29A14.59,14.59,0,0,0,118.05,65.25Z"/><path class="cls-1" d="M144.24,59.7a3,3,0,0,0-1-.16,2.83,2.83,0,0,0-1.42.36,3.27,3.27,0,0,0-1.05,1,4.4,4.4,0,0,0-.66,1.45,6.53,6.53,0,0,0-.23,1.8v3.63c0,1.47,0,2.6,0,3.38A17.51,17.51,0,0,0,140,73a11.67,11.67,0,0,0-1.32-.07,12.43,12.43,0,0,0-1.39.07q.1-1.12.12-3.06c0-1.28,0-2.86,0-4.73V64.19c0-.86,0-1.85,0-3s-.05-2.41-.12-3.86l.7.12a5.09,5.09,0,0,0,.69.05,4.7,4.7,0,0,0,.63-.05l.69-.12c-.09.79-.14,1.42-.15,1.88s0,.9,0,1.32l.07,0Q141.88,57,144.29,57a3.89,3.89,0,0,1,.51,0,3.17,3.17,0,0,1,.54.17,3.93,3.93,0,0,0-.2,1.2q0,.81,0,1.47l-.23.17A1.47,1.47,0,0,0,144.24,59.7Z"/><path class="cls-1" d="M155.61,73.07c-.25-.59-.56-1.36-.94-2.31s-.8-1.94-1.24-3-.89-2.11-1.36-3.2l-1.3-3.07c-.41-1-.76-1.8-1.07-2.52L149,57.36l.79.12a5.81,5.81,0,0,0,.72.05,6,6,0,0,0,.73-.05l.79-.12q1,3.16,2.28,6.27T157,70q1.38-2.9,2.66-6.2c.84-2.2,1.6-4.36,2.26-6.47a3.55,3.55,0,0,0,2.17,0c-.15.31-.4.83-.74,1.57l-1.22,2.64c-.47,1-1,2.16-1.55,3.4l-1.72,3.83-1.73,3.89c-.57,1.29-1.1,2.51-1.58,3.66s-.91,2.2-1.27,3.14-.64,1.67-.81,2.23a3.81,3.81,0,0,0-2.25,0A67.45,67.45,0,0,0,155.61,73.07Z"/></g></g></svg>