<svg xmlns="http://www.w3.org/2000/svg" viewBox="0 0 573.77 192.94"><defs><style>.cls-1{fill:#005aac;}.cls-2{fill:#393c41;}.cls-3{fill:#3e6f99;}.cls-4{fill:#7d7d7d;}</style></defs><g id="レイヤー_2" data-name="レイヤー 2"><g id="レイヤー_1-2" data-name="レイヤー 1"><path class="cls-1" d="M229.77,183.41h2a.35.35,0,0,0,.28-.15l8.43-13.79,4.58,15.77a.26.26,0,0,0,.24.19h8.84a.13.13,0,0,0,.13-.18L245,155.72a.29.29,0,0,0-.25-.18h-3.32a.37.37,0,0,0-.29.16l-11.36,17.61L218.42,155.7a.39.39,0,0,0-.3-.16h-3.31a.29.29,0,0,0-.25.18l-9.33,29.53a.13.13,0,0,0,.13.18h8.84a.25.25,0,0,0,.24-.19L219,169.47l8.42,13.79a.35.35,0,0,0,.29.15Z"/><path class="cls-1" d="M205.63,168.71h0a.17.17,0,0,0-.18-.15H180.26a2.41,2.41,0,1,0,0,4.82h15c-1.79,4.71-7.82,8.18-15,8.18-8.57,0-15.51-5-15.51-11.07s6.94-11.08,15.51-11.08A18.5,18.5,0,0,1,192,163.24l0,0a.19.19,0,0,0,.1,0h10.29a.19.19,0,0,0,.19-.19.14.14,0,0,0,0-.11s0,0,0,0c-4.39-4.68-12.72-7.82-22.27-7.82-14.11,0-25.55,6.86-25.55,15.34s11.44,15.34,25.55,15.34S205.8,179,205.8,170.49a9.59,9.59,0,0,0-.17-1.78"/><path class="cls-1" d="M279.29,155.15c-14.11,0-25.54,6.86-25.54,15.34s11.43,15.34,25.54,15.34,25.55-6.87,25.55-15.34-11.44-15.34-25.55-15.34m0,26.41c-8.56,0-15.51-5-15.51-11.07s7-11.08,15.51-11.08,15.51,5,15.51,11.08-6.95,11.07-15.51,11.07"/><path class="cls-2" d="M412.55,185a.44.44,0,0,0,.44.48h5.34a.54.54,0,0,0,.51-.48l.91-12.22a.44.44,0,0,0-.44-.48H414a.53.53,0,0,0-.51.48Z"/><path class="cls-2" d="M443.42,172.26a.43.43,0,0,0-.44.47l.93,12.22a.53.53,0,0,0,.51.48h5.34c.26,0,.76-.22.74-.48l-1.23-12.22a.52.52,0,0,0-.51-.47Z"/><path class="cls-2" d="M449.09,166.2a.47.47,0,0,0,.48-.47V160.6a.48.48,0,0,0-.48-.49H434.83a.47.47,0,0,1-.48-.47V156a.48.48,0,0,0-.47-.48h-5.14a.49.49,0,0,0-.48.48v3.62a.47.47,0,0,1-.48.47H413.62a.48.48,0,0,0-.47.49v5.13a.47.47,0,0,0,.47.47h14.16a.47.47,0,0,1,.48.48V185a.49.49,0,0,0,.48.48h5.14a.48.48,0,0,0,.47-.48V166.68a.47.47,0,0,1,.48-.48Z"/><path class="cls-3" d="M453,155.15h3.62a.47.47,0,0,1,.47.47v7a.48.48,0,0,1-.48.48H453a.48.48,0,0,1-.48-.48v-7A.47.47,0,0,1,453,155.15Z"/><path class="cls-3" d="M459.57,162.65a.49.49,0,0,0,.48.48h3.62a.49.49,0,0,0,.48-.48v-7a.48.48,0,0,0-.48-.47h-3.62a.48.48,0,0,0-.48.47Z"/><path class="cls-2" d="M312.75,176.43a.31.31,0,0,0,0,.45l3.85,3.85a.32.32,0,0,0,.46,0l13.95-14a.34.34,0,0,1,.46,0L349.7,185a.33.33,0,0,0,.45,0l3.85-3.85a.34.34,0,0,0,0-.46l-22.53-22.57a.31.31,0,0,0-.45,0Z"/><path class="cls-3" d="M350.13,164.14a4.5,4.5,0,1,0-4.5-4.5,4.5,4.5,0,0,0,4.5,4.5"/><path class="cls-2" d="M364.18,185.1a.27.27,0,0,0,.28.32h5.92a.37.37,0,0,0,.36-.32l3.19-26.59a.27.27,0,0,0-.28-.32h-5.91a.37.37,0,0,0-.36.32Z"/><path class="cls-2" d="M388.14,158.19a.27.27,0,0,0-.28.32l3.23,26.6a.37.37,0,0,0,.35.32h5.92a.28.28,0,0,0,.28-.32l-3.23-26.6a.37.37,0,0,0-.35-.32Z"/><path class="cls-3" d="M403.09,155.15a4.49,4.49,0,1,0,4.5,4.49,4.49,4.49,0,0,0-4.5-4.49"/><path class="cls-4" d="M113.84,161.14V171.9h.1a5.35,5.35,0,0,1,.74-.8,6.44,6.44,0,0,1,1.06-.77,7.65,7.65,0,0,1,1.46-.59,6.77,6.77,0,0,1,1.88-.23,7.1,7.1,0,0,1,5.37,2.32,7.76,7.76,0,0,1,1.53,2.56,9.08,9.08,0,0,1,.54,3.16,9.27,9.27,0,0,1-.53,3.18,7.78,7.78,0,0,1-1.5,2.58,7,7,0,0,1-2.36,1.75,7.09,7.09,0,0,1-3.14.66,6.73,6.73,0,0,1-3-.7,5.22,5.22,0,0,1-2.22-2h-.07v2.29H110V161.14Zm8.78,16.41a5.94,5.94,0,0,0-.27-1.77,5.09,5.09,0,0,0-.81-1.59,4.15,4.15,0,0,0-1.38-1.13,4.24,4.24,0,0,0-1.94-.43,3.87,3.87,0,0,0-1.88.45,4.87,4.87,0,0,0-1.43,1.15,4.92,4.92,0,0,0-.89,1.6,5.43,5.43,0,0,0,0,3.56,5,5,0,0,0,.89,1.58,4.8,4.8,0,0,0,1.43,1.13,4.1,4.1,0,0,0,1.88.43,4,4,0,0,0,1.94-.45,4.21,4.21,0,0,0,1.38-1.15,4.88,4.88,0,0,0,.81-1.59,6.22,6.22,0,0,0,.27-1.79"/><path class="cls-4" d="M128.17,170h4.25l4.27,11.14h.07l3.8-11.14h4l-7.25,18.62a12.41,12.41,0,0,1-.9,1.86,5.32,5.32,0,0,1-1.14,1.38,4.69,4.69,0,0,1-1.58.84,7.4,7.4,0,0,1-2.19.29c-.32,0-.65,0-1-.05a7.35,7.35,0,0,1-1-.17l.32-3.33a3.41,3.41,0,0,0,.75.18,4.15,4.15,0,0,0,.69.05,3,3,0,0,0,1-.15,1.7,1.7,0,0,0,.7-.44,3.52,3.52,0,0,0,.51-.75c.15-.31.31-.65.48-1.05l.77-1.95Z"/><path d="M1.5,67.94a5.17,5.17,0,0,0,.35-1.15c0-.32-.1-.25-.38-.72s-.25-.29-.37-.76,0-.31-.26-.62-.71-.5-.71-.88.12-.28,0-.81-.29-.72,0-1.13a6,6,0,0,0,.43-.81,1.23,1.23,0,0,1,.49-.58A1.35,1.35,0,0,0,1.53,60c.18-.25.41-.55.68-.38s.56.69.84.55.34-.41.64-.55a.89.89,0,0,1,.61-.12,1.1,1.1,0,0,0,.94-.45c.27-.35,1.07-.58,1.19-.29s.49.63.75.29.52-.93.91-1.07,1.11.1,1.5,0,.82-.07,1.07-.43a2.48,2.48,0,0,1,.72-.73c.2-.13.48-.06.47-.49s-.13-.73.12-1,.66-.39,1-.66a2.57,2.57,0,0,0,.48-.5c.3-.36.52-.14.67-.59s.24-.23.3-.7,0-.87.22-1.13.39,0,.44-.55,0-.22.05-.89a5.09,5.09,0,0,1,.18-1.28c.13-.47.28-.1.16-.72a2.79,2.79,0,0,1-.17-1.24c.06-.56,0-.49.11-1.1s.54-.43,0-1,0-.24-.39-.93a5.28,5.28,0,0,0-.62-1A1.89,1.89,0,0,1,14,41.81a2.94,2.94,0,0,1,.29-1c.23-.61.62-.67.62-1s-.36-.21-.42-.68a1.94,1.94,0,0,1,.11-1.61c.42-.81.7-1.31,1-1.25s.72.09.87.58.33.61.65.42a11,11,0,0,1,1-.75,2.93,2.93,0,0,1,1.68-.12c.48.14.32.29,1.09.42a6.88,6.88,0,0,0,1.64.25c.88,0,.83-.39,1.52-.52a3.38,3.38,0,0,1,1.49.19c.48.08.55-.13,1.25-.53s.78-.75,1.64-.35.36.1,1.35.46,1.06.51,1.22.51a1.32,1.32,0,0,0,1.19-.09c.77-.38,1-.91,1.92-.58s1-.06.68,1-.54.9,0,1.3.32.36.07,1-.12,1.8-.58,2.52a1.81,1.81,0,0,0-.4,1.67,10.3,10.3,0,0,0,.31,2c.16.66.47.86.2,1.55s-.68,2.35-.26,1.86A10.89,10.89,0,0,1,36,47.51c1-.72.57-.83,1.52-1.41a8.68,8.68,0,0,0,1.78-1.19c.39-.41.41,0,.58-.47s-.12-.74.75-.84,1.27-.37,1.4-.57a2.23,2.23,0,0,1,.76-.56c.33-.19.44-.77,1.1-.82s.92-.47,1.3-.29.47,0,.56-.25a3.74,3.74,0,0,1,.78-1c.27-.29.22-.57.42-.41s.73.27.87,0-.18-.17.39-.35.2-.73,1.12-.58.69.25,1.13,0S51.69,37,52.2,37.05s.43.79.83.47a3.08,3.08,0,0,1,1.52-.67,3.83,3.83,0,0,0,1.61-.64,2.23,2.23,0,0,1,1.36-.66c.63,0,1.32-.39,1.66-.2s.5.83,1.1.65.22-.28.83-.28a7.11,7.11,0,0,0,1.83,0,3.63,3.63,0,0,1,1.67-.43c.52.09.49-.21,1.21-.22s.84-.22,1.53.09,1.14.5,1.64.77a2.47,2.47,0,0,0,1.37.4,7.56,7.56,0,0,1,2.69.66c.69.38.73.88,1.25,1a3,3,0,0,1,1.2.23c.52.25,1,.63,1.37.6s.59.28,1,.54.18.55.81.61a1.5,1.5,0,0,1,1,.3,3.17,3.17,0,0,1,.92.61c.49.46.43,1.16.72,1.19s.44,0,.49.5,0,.6.56.75.72.5,1.08,1,.3.07.66.47.37.32.37.75.64,1,.68,1.48.06.31.48.64,1,.51,1,.81,0,.67.47.72a.7.7,0,0,1,.64.47c.06.16.25,1,.42,1.08s0-.11.79-.09,1.78.51,1.81.14-.2-.3.19-.71a2.46,2.46,0,0,0,.7-1c.41-.73.35-.22.74-.81s.31-.74.86-1.28.14-.36.83-.69,1.34-.27,1.64-.8.27-.81.77-1.13.37-.31,1.06-.81.88-.3,1.29-.86a6.23,6.23,0,0,1,.68-.82,3.65,3.65,0,0,1,1.13-.93,3.39,3.39,0,0,0,1.16-1,2.55,2.55,0,0,1,1.6-1.23c1-.19.81.14,1.26-.33s.27-.55.83-.8.91-.36,1.11-.09.1.21.39-.07,0-.2.58-.29.68,0,1.35-.52.88-1.05,1.66-.74.78.32,1.27.13.76,0,1.34-.33.64-.55,1.27-.39.48.08,1.36-.09a3.06,3.06,0,0,1,1.69-.13c.88.14,1-.06,1.69.19s.75.66,1.14.08.83,0,1-.32-.14-.78.61-.7,1.21.25,1.54.11a4.74,4.74,0,0,1,2.23.25c.52.23.08-.14.88.41s.55.67,1.42.79a6.76,6.76,0,0,0,1.51.11,3.34,3.34,0,0,1,1.94.74c.48.38,0,.61.83.75s.84,0,1.17.14a5.19,5.19,0,0,1,1.8,1.11c.33.49.27.11.77.69s.18.67.83.86.54.06.89.46.22,0,.67.67-.25,1.34.52,1.31.61-.19,1,.24a3,3,0,0,0,1,.7c.43.24,0,.06.54,1s.11.92.65,1.44.28.7.53,1,.61-.09.92.86.81,1.15.91,1.74a3,3,0,0,1,0,1.11,2.73,2.73,0,0,0,0,1.15c.11.45-.38.07.27.84a6.77,6.77,0,0,1,1.51,2.32,4.8,4.8,0,0,1,.14,1.81c0,.27-.51.64-.29,1.05s.51.59.54,1,.54.74.33,1.25-.36,0-.15.94.23,1.07.09,1.41-.12.27,0,.72.14.6.27,1.17.21.19.17,1,.09,1-.16,1.5a7.43,7.43,0,0,0-.5,1.39c-.34,1-.39.85-.05,1.44a5,5,0,0,1,.64,2.27A5.7,5.7,0,0,1,147,74c-.16.42-.22.44-.17.7s-.11.14,0,.6a1.84,1.84,0,0,1,0,1.44c-.28.51-.26.9-.07,1.08s.39,0,.39.51-.11,0,.2.64.36.44.22.91a7,7,0,0,1-.38,1.38c-.17.25-.18-.09-.14.59s-.26,1-.2,1.4.13-.11-.06.65-.22.68,0,1.21a1.38,1.38,0,0,1,.1,1.23c-.19.54-.46,0-.18.71s.46.56.47,1,0,.39,0,1.08.08,1-.09,1.26a1.31,1.31,0,0,0-.3,1.13c.13.56.13,0,.18.75s.28,1.14,0,1.46-.3-.16-.42.79-.17.68.17,1.22.95.93,1,1.84a9.85,9.85,0,0,1-.12,2.12c-.1.69-.29,1.18-.38,1.68s-.22,0-.14,1.09a7.57,7.57,0,0,1,0,1.6c0,1-.62.81-.48,1.68A2.89,2.89,0,0,0,147,107c.23.5.48.24.18,1.1s-.37.58-.36,1.2-.37,1,.1,1.54.45.31.34.94-.28.07,0,1a3.49,3.49,0,0,1,.25,1.43,4.19,4.19,0,0,1-.08,1.39c-.07.77,0,.55.19,1s.72,1.14.53,1.56-.36.19-.61.94-.78,2.35-1.59,2.19-1.13-.37-1.35-.75,0-.5-.56-.77a1.31,1.31,0,0,0-1-.17c-.46,0-.53-.26-1,0s-.65.59-1,.56-.53-.33-.95-.08-.24.06-.63,0-.2-.43-.77,0-.25.56-1.23.39A7.8,7.8,0,0,1,136,120c-.27,0-.55-.64-1-.36a2.42,2.42,0,0,1-.92.42c-.56.16.67.53-.94.38a13.5,13.5,0,0,1-2.1-.43,5.5,5.5,0,0,1-1.28-.36c-.59-.15-1,0-1.3-.68s-.12-.72-.39-1.12-.47-.31-.47-.76-.08-.39-.08-.93.27-.23.16-.79-.22-.52,0-.8.39-.58.58-.66.66-.12.34-.53a3.51,3.51,0,0,1-.65-1.1,1.81,1.81,0,0,1-.24-1.2c0-.57-.44-.16-.08-1s.43-.29.44-.86-.06-.23.22-.6.61-.05.5-.79a3.47,3.47,0,0,1-.09-1.42c.09-.46-.36-.69-.32-1.41s.1-.42-.07-.91-.54-.28-.33-1.17.34-.49.3-1-.26-.47-.1-1.06.71-.46.44-1.1a2.54,2.54,0,0,1-.33-1.27c0-.62-.23.13,0-1a2.66,2.66,0,0,0,.07-1.66,9,9,0,0,1,0-1.64c0-.8-.06-1.17.21-1.59s.31-.26.33-1,.25-.77.17-1.38-.44-.48-.36-.81.44-.45.48-.92.18.25,0-.75a5.34,5.34,0,0,0-.38-1.38c-.14-.52.25,0,0-.92s-.45-.21-.34-1a6.83,6.83,0,0,1,.31-1.18c.19-.75,0-.34.16-1.2s.47-.57.33-1.1-.8-.19-.5-1.13.12-.84.39-1.17.61-.39.45-1,.27-.72-.34-1-1-.56-.82-1,.74-.58.46-1.09-.69-.91-.64-1.3.23-.36.48-1.29.47-1,.35-1.39a5.93,5.93,0,0,0-.44-1c-.28-.59-1.05-.39-.77-.87s.64-.36.64-1.12-.08-1.64,0-2.37.31-.41.09-1.13-.27-1.16-.44-1.57a7.2,7.2,0,0,1-.81-1.45,9.44,9.44,0,0,0-.22-1.06,3.48,3.48,0,0,0-.91-1.27c-.31-.27-.42-.18-.94-1.33A3.31,3.31,0,0,0,124.15,56a2,2,0,0,1-.59-.89c-.2-.45,0,0-.45-.51s-.52-.22-.83-.57-.36-.26-.46-.51-.15-.16-.48-.41.25.06-.6-.52-.78-.34-1.09-.8.25-.61-.46-.59-.37.09-.92,0-.61,0-1.08-.08-.23-.25-.64-.25-.17.21-.74,0a3.07,3.07,0,0,1-.68-.39c-.36-.2-.44-.4-.74-.31a3.92,3.92,0,0,1-.64.22c-.39.09-.44.3-1.07.22a4,4,0,0,1-1.15-.22c-.6-.19-.25-.3-1-.27s-.75-.42-1-.21a4.49,4.49,0,0,0-.5.39,2.52,2.52,0,0,1-1.11.64c-.72.26-.66.34-.91.31s-.19-.19-.31-.33,0-.31-.46-.25-.83,0-1,.33-.34.33-1,.66-.64.37-1.23.66-.19.37-.8.4a3.44,3.44,0,0,1-1.07-.05c-.15,0-.17-.39-.26,0a2.29,2.29,0,0,1-.55,1c-.25.26-.5.14-.62.3s-.08.34-.13.57a1.74,1.74,0,0,1-.67.88A2.31,2.31,0,0,1,98,56c-.69.32-.58.4-.95.43s-1,0-1,.17-.25.33-.29.42a1.92,1.92,0,0,1-.52.64c-.44.44-.24.4-.66.82s-.75.48-.92,1,0,.29-.63.56-.86-.34-1,.46a8.64,8.64,0,0,0-.28,1.76c0,.69.09.49,0,1s-.14.89-.27,1.44a9.53,9.53,0,0,1-.5,1.46,2,2,0,0,0-.26.95c0,.28.37.55.09,1.16s-.52.15-.48.7-.24.35,0,1,.51.55.51,1.24-.25.71-.12,1.1.25.34.09.79.24.13.06.72.11.88-.67,1.24-.28.61,0,1.06a2.3,2.3,0,0,1,.52,1.41c-.07.6-.44,1.16-.44,1.41s0,0,.23.75.33,1,.25,1.35a8.59,8.59,0,0,1-.2,1.17c-.11.22-.2-.26-.06.39s.3.86.11,1.33a3,3,0,0,0-.33,1c0,.29.3.55.22,1.29s-.22.08-.16,1,.5.78.16,1.32-.66.36-.55.9.36.29.44.74a4.5,4.5,0,0,1,.3,1.67c-.1.72-.3.29-.1.88s.28.5.33,1a1.68,1.68,0,0,1,0,.8,7.44,7.44,0,0,0-.35.74c0,.23-.07-.25.11.43s.29.65.11,1.32a16.47,16.47,0,0,1-.31,1.75.93.93,0,0,0-.05.94,8.44,8.44,0,0,1,.41.88,3.79,3.79,0,0,1,.06,1.36c-.14.55-.31.42-.33.81a1.75,1.75,0,0,0,.11.89,1.21,1.21,0,0,1,.13.94c-.11.41-.25.11-.31.8s-.24.44.12.82a2.41,2.41,0,0,1,.69,1.72c0,.73-.25.69,0,1.14s-.08.28-.1.88,0,.59,0,1.11A6.28,6.28,0,0,1,91,112.4a7.72,7.72,0,0,0-.16,1.49c-.05.7.13.39.13,1.36a11.61,11.61,0,0,0,.06,1.42c0,.43.08.93.11,1.3a3.18,3.18,0,0,1-.08,1.29c-.14.26.09.78-.7,1.15s-1.12,1.22-1.65.5-.92-1.06-1.12-1.11a.75.75,0,0,0-.69.13c-.3.2-.5.17-1.08.09s-.64-.26-1-.12.08.28-.82.33-.64-.16-1.37-.16-.93-.33-1.36-.06-.24.61-.57.7-.16.47-1.27.36-.79-.25-1.39-.41-.59-.26-1-.08-1-.14-1.37.29a3.47,3.47,0,0,1-.65.75c-.3.22.14.37-.79.19s-.57.34-1.36-.61-1-.49-1.14-1.26-.25-.57-.17-1,.2-.06.22-.84a7.45,7.45,0,0,1,.08-1.16c.06-.77.54-.22.25-1.17s-.63-1.19-.43-1.63.47,0,.4-.49a1.65,1.65,0,0,1,.07-.94c.11-.53.36-.15.25-1.33s-.29-2.34-.29-3.3.37-2.11.39-2.72,0,.14-.22-.74a3.69,3.69,0,0,1-.28-1.51c0-.93-.24-.66-.19-1.51s.3-.84.34-1.17a2.44,2.44,0,0,0-.18-1.53,3.55,3.55,0,0,1-.62-1.6,3.69,3.69,0,0,1,.22-1.69c.29-.8,1-1.24.77-1.78s-.55-.6-.44-1.18.35-.4.3-.84a9.77,9.77,0,0,1-.38-1.62,8,8,0,0,0-.26-1.7A2,2,0,0,1,72,86.85a1.89,1.89,0,0,0,.42-1.24c0-.44-.11-1.36-.14-2a2.17,2.17,0,0,0-.35-1.25c-.25-.46-.17-.19-.17-1.07s0-.17,0-1.22,0-1,.25-1.41.33-.18.33-1.42a14.11,14.11,0,0,0,0-1.66c-.08-.51-.27-.11-.34-1.3a14.61,14.61,0,0,0-.16-1.56c-.09-.77-.3-.46-.08-1s.42-.68.35-1.22A11,11,0,0,1,72,68.37a11.41,11.41,0,0,0,.09-1.8A8.36,8.36,0,0,0,72,64.91a3.74,3.74,0,0,0-.51-1.44c-.36-.55.18-.31-.19-.85s-.38-.2-.42-.83.36-1.34-.24-1.83-.78-.45-1.05-.92-.18.06-.31-.77.16-.59-.17-1.22a13.17,13.17,0,0,0-.8-1.34,18.83,18.83,0,0,0-2-1.49c-.54-.36-.1-.45-.69-1s.37-.12-.93-.59-1.31-.24-1.84-.6-.17-.21-1-.84-.55-.67-1.49-.86-1.61-.47-1.92-.47a12,12,0,0,0-1.27-.09c-.37,0,0-.1-.86-.27s-.86-.45-1.63-.08-.64.53-1.34.44-1.25-.35-1.49-.3.14-.08-.66.38-1,.81-1.45.87a5.42,5.42,0,0,0-1.35.33c-.48.21-.47.35-.91.36s-.65-.17-.73.14.17.18-.25.93S45.6,54.1,45,54.3a3.3,3.3,0,0,1-1.72.17c-.85-.08-.14-.12-.95.34s-1.26.87-1.41.8-.39-.45-.66.16-.05,1-.49,1.27a7.63,7.63,0,0,0-.94.76c-.53.43-1,.33-1.15.52s.33.16-.6.8-.53.58-1.27.76-.86.27-.86.41.6,1,0,1.3a9.37,9.37,0,0,1-1,.47c-.3.09-.77.09-.47.63s1.5.14,1.18.68-.6,1.15-.93,1.33-.41.18-.33.46a1.47,1.47,0,0,1,.16,1.25c-.25.61-.42.47-.38,1s.18.25.35.78.42.59,0,1.25a1.65,1.65,0,0,0-.32,1.25c0,.53-.15.53,0,1.14s.44.63.38,1.4a16.33,16.33,0,0,0-.32,2,8.81,8.81,0,0,0,.08,1.17,14.73,14.73,0,0,1,.08,1.8c0,.52-.42.19.09.81s.86.5.61,1.07-.36.2-.61,1a7.22,7.22,0,0,0-.34,2.19,5.6,5.6,0,0,0-.06,1.16c.06.49.15,1.8.25,2.9a15.8,15.8,0,0,1,.22,1.94,27.67,27.67,0,0,1-.15,3.66c-.14.72-.12.26,0,1.19A10.73,10.73,0,0,1,33.8,96a21.23,21.23,0,0,1,.13,3c-.14.59-.27,0-.24,1.08a9.78,9.78,0,0,0,.35,1.77,2.37,2.37,0,0,0,.18.93c.13.38-.29.57.16.93s.61.12.64.53a16.89,16.89,0,0,1,.19,2.22,6.31,6.31,0,0,1-.42,1.36c-.16.6-.57.91-.5,1.74a2,2,0,0,0,.2,1,4.08,4.08,0,0,1,.36,2,3.35,3.35,0,0,0-.16,1.08c0,.66-.2.17-.22,1s-.12.8-.09,1.34.22.41.17,1a5.68,5.68,0,0,0,.27,1.46,2.45,2.45,0,0,1-.25,1.33c-.32.67.44,1.21-.78.89a4.64,4.64,0,0,0-1.87-.31c-.69,0-1.12.31-1.8.14s-.67-.34-1.5-.55a7.53,7.53,0,0,0-1.8-.22c-.23,0-.45.36-1.22.33a2.65,2.65,0,0,0-1.47.35,2.16,2.16,0,0,1-1.35.18c-.2-.1-.15-.32-.54-.59s-.86-.66-1.1-.44-.45.24-.8.63a4.52,4.52,0,0,1-1,.94c-.33.17,0,.53-.77.4s-1.17-.09-1.36-.33-.55-.26-1-.5-.72-.14-.86-.89a5,5,0,0,1-.25-1.41c0-.69-.18-1,0-1.44s.45,0,.42-.73-.13.17-.17-.86-.07-.85,0-1.25.41-.18.33-.63-.08-.78-.22-1.55-.11-1.25,0-1.33.36-.17.33-.53-.21,0-.16-.72a10.61,10.61,0,0,0,0-1.36c0-.41,0,0,.23-.61s.38-.39.35-.93,0-1,0-1.81a2.27,2.27,0,0,0-.17-1.22c-.24-.67-.32-.42-.27-1.07s-.09-.64.08-.81a1.53,1.53,0,0,0,.36-1.17c0-.63-.11-.94,0-1.22s.39-.13,0-.58-.45-.05-.62-.83a9.25,9.25,0,0,1-.14-1.41c-.08-.61-.55-.19-.24-1.19a2.8,2.8,0,0,0,.24-1.68,4,4,0,0,1-.1-1.48c.1-.33.41-1.13.75-1s.32-.08.08-.41A1.64,1.64,0,0,1,15.85,89c0-.91.22-.68-.06-1.3s.09-.52.09-.91-.22-.41-.06-.7.85-.25.7-.71-.06-1-.17-1.48.24.07-.29-.79-.4-.7-.33-1.2-.07-.52.09-1,.31-.14.2-1.08-.2-1.24,0-1.6.64,0,.52-.73,0-.24-.1-.77-.15-.22-.21-.66a3.63,3.63,0,0,1,0-1.5c.14-.73.53-.11,0-.81s0-1-.68-1-.47.25-1-.12-.5-.63-.91-.6a2.1,2.1,0,0,0-1,.43,6.92,6.92,0,0,1-.87.57c-.56.29-.48.44-1.23.63s-.85.39-1.3.35-.5,0-.6.07-.23.71-.57.69-.55-.11-.79.24a1.94,1.94,0,0,1-.62.72c-.36.25-.43.42-1,.39a4.81,4.81,0,0,0-1.56.29c-.08,0-.24.44-.16-.12s.54-.41,0-.83-.73-.41-.86-.74A6,6,0,0,1,2.72,74a4.25,4.25,0,0,0-.39-.81,2.73,2.73,0,0,1-.19-.8c0-.31-.29-.11,0-1s.64-.64.31-1.08-.53-.49-.7-.94S1.19,68.91,1.5,67.94Z"/><path d="M189.52,120.13c.22,0,.25.22.91.22s.36-.17.86-.12a7.59,7.59,0,0,0,1.81.35,2.57,2.57,0,0,0,1.46-.4c.44-.22.56,0,.91-.44s.36-.06.89-.34.22.26,1,.65a3.06,3.06,0,0,0,2,.24,10.43,10.43,0,0,0,2-.24c.64-.15,1-.33,1.45-.4s.71.25,1.77.26a5,5,0,0,0,2.26-.37c1-.33.31-.49.09-.91a5.29,5.29,0,0,0-.88-1.36c-.36-.33-.61-.33-.06-.69s.34-.74.61-1.5a2.53,2.53,0,0,0-.08-1.71,10.49,10.49,0,0,1-.11-1.42c0-.61,0-.75,0-1.41s-.81-1.05-1.27-1.53-.09-.58.27-.76a2.9,2.9,0,0,0,.86-.51c.38-.32.33-.78.44-1.57a5.87,5.87,0,0,0-.08-1.72c-.05-.59-.06-1.23-.06-1.86s-.17-.41-.19-.89-.14-1.18-.14-1.33-.08-.6-.09-.93-.08-.86-.07-1.26a8.32,8.32,0,0,1,.13-.85c.05-.41.06-.48.09-.81s-.12-.83-.12-1.32a8.29,8.29,0,0,0-.49-1.73,3.11,3.11,0,0,1-.25-1.08c0-.47.06-.68.06-1.15a9.12,9.12,0,0,1,.3-1.36,3.61,3.61,0,0,0,.1-1.06c0-.17-.27-.39-.36-.64s0-.36.2-.69a2.5,2.5,0,0,0,.27-1.27,1.27,1.27,0,0,0-.22-.92,3,3,0,0,1-.18-1c-.07-.64.29-.47.55-.88s.13-.72.21-1.26,0-.38-.27-1.15a4.06,4.06,0,0,1-.31-1.12,1.52,1.52,0,0,1,0-1,2.48,2.48,0,0,0,.05-.9c0-.18-.18-.49-.27-.94s0-.38.28-.79,0-.48-.06-1.06a4.39,4.39,0,0,1,.23-1.94c.16-.24,0-.36-.08-.81a3.53,3.53,0,0,1,.18-1.26,2.48,2.48,0,0,0-.05-1.2,2.62,2.62,0,0,0-.28-1c-.16-.36.08-.44.26-.53s.1-.47,0-.72.13-.19.29-.66a1.46,1.46,0,0,0-.1-1.08,1.3,1.3,0,0,1,.05-.8,3.27,3.27,0,0,0,.42-1.2,7.33,7.33,0,0,0,.16-1.3,2.83,2.83,0,0,0-.22-1.07c-.21-.56-.38-.39-.75-.93a2.57,2.57,0,0,1-.08-1.84c.08-.32,0-.39-.14-1.11a5.13,5.13,0,0,1-.21-1c0-.52,0-.52,0-1.68s-.24-.61.27-1.19a2.46,2.46,0,0,0,.56-1.83,2.94,2.94,0,0,0-.53-1.84c-.25-.39-.19-.39-.07-1a2.35,2.35,0,0,0,.08-1.29c-.11-.66-.19-1.16-.23-1.37s-.21-.4-.39-1,.23-.41.42-.85a6,6,0,0,0,.44-1.51c.18-.91-.71-2.15-.71-2.27a2.18,2.18,0,0,1,.72-1.16c.58-.6.41-.63.61-1.3s-.06-.95-.17-1.53a13.46,13.46,0,0,0-.48-1.44c-.21-.68-.94-.25-1.44-.47s-.77-.35-.93,0-.78.24-1.22.43a3.36,3.36,0,0,1-1.64.18,5.79,5.79,0,0,1-1.14-.32c-.38-.07-.68.07-1,0s-.59-.48-1-.66-.39.07-.86.32a2.25,2.25,0,0,1-1.38.11c-.5,0-.75-.22-1.22-.25a1.6,1.6,0,0,0-1.22.39c-.53.34-.53-.08-1.16-.3a6.5,6.5,0,0,1-1.74-.94c-.51-.39-1,.23-1.34.41s-.6-.08-.85-.27-.73.05-.89.41-.39-.14-1.17.23-.77.47-.91,1.22a10.82,10.82,0,0,0,.05,2.44c0,1.27.18.46.47,1.24a6.82,6.82,0,0,1,.37,1.17c.13.52.33.25.63.68s-.08.48-.1,1-.15.18-.37.8.29.78.42,1.49.16.3.31.87-.15.35-.65,1.08-.08.19.07.86-.2.43-.15,1.26.34.73.5,1.14.06.23.12.86-.11.56-.22.88a1,1,0,0,0-.12.64c0,.48-.13.28-.33.78s0,.11.36.78.13.16.13.71,0,.23.39.65,0,.21.15,1-.06.4-.23,1-.1.44-.21.91.1.39.25.79-.12.38-.17.71.11.28.16.89,0,.19-.27.91a2,2,0,0,0-.17,1.48,3.35,3.35,0,0,1,.14.83c.06.57,0,.5-.17,1.35a1.85,1.85,0,0,0,0,1,3.52,3.52,0,0,0,.42,1.44,2.15,2.15,0,0,1,.33,1.32,3,3,0,0,1-.23,1.36,6.15,6.15,0,0,0-.1,1.53,13.82,13.82,0,0,0,0,1.9,6.76,6.76,0,0,1,.14,1.3c0,.61,0,.14.36.56s.13.16-.06.52a1.27,1.27,0,0,0-.14.84c0,.41.15.56.22,1.19s-.14.24-.25.7a8.86,8.86,0,0,0-.24,1.26,4.94,4.94,0,0,0,0,1.53,4,4,0,0,1-.05,1.09,6.36,6.36,0,0,1-.2,1.37,3.53,3.53,0,0,0,.43,2.12c.36.94-.26,1-.39,1.34A3.45,3.45,0,0,0,186,88.9c-.06.65.23.95.44,1.61s-.13.73-.33,1.22-.05.37.26.86.11.23.08.78.05.33.35.69,0,.45-.21.75,0,.24.24.69.08.23.06.85-.19.64-.38,1.34.22.86.22,1.07a1.38,1.38,0,0,1-.34,1.11c-.44.58,0,.91-.06,1.48s0,.44,0,1a2.16,2.16,0,0,0,.2,1c.09.37.25.31,0,.9s.11.55.22,1.23.28.28.22,1.06a8.65,8.65,0,0,0-.06,1.14c0,.58.06.31.23.83s.2.52.17.75-.22.28.07,1,.17.39-.25,1-.16.86-.13,1.15a2.78,2.78,0,0,1,0,.68,2.63,2.63,0,0,0,.06,1.19c.16.63-.06.47-.19.91s-.34.75-.53,1.35,0,.44,0,.75a7.27,7.27,0,0,0-.16,1.25c0,.63.1.38.13.85s.41.46.72.78a1.28,1.28,0,0,0,1,.43,1.41,1.41,0,0,0,1-.34C188.71,120.44,189.21,120,189.52,120.13Z"/><path d="M188.69,3.6c.65-.71.75-.21.73-.84s-.08-1.17.27-1.23a10.51,10.51,0,0,1,1.67-.06c.58,0,.81.21.9-.11s.08-.64.52-.37.48.35.77.15.71-.15,1.21-.36,1.11-.63,1.61-.25.73.63.87.46.36-.73.63-.73.58-.4,1.11-.21.7.11,1.08.5a3.84,3.84,0,0,0,1.23.77c.52.27.82.07,1.15.52s.54.49.75.9.1.17.23.82.19.77.48,1,.79.16,1,.48.42.33.52.81a9.28,9.28,0,0,1,.34,1.48,15,15,0,0,0,.46,2,2.8,2.8,0,0,1,.08,1.37c-.11.23-.54,0-.42.86a2.31,2.31,0,0,1-.14,1.56c-.17.29.06.9.06,1.21s-.06,1-.4,1a1.28,1.28,0,0,1-.67,0c-.12-.07-.46,0-.29.2s1,.11,1.05.57,0,1.14-.36,1.25-1.06.12-1.17.29a2.15,2.15,0,0,0-.25.69c-.08.38-.14.44-.5.63s-.4.5-.6,1-.25.5-.71.66-.71.5-1,.32-.38-.36-.61-.19-.37.12-.81.39-.27.32-.63.28-.6-.21-.85,0-.34.19-.8.53a1.84,1.84,0,0,1-1.25.52,3.71,3.71,0,0,1-1.1-.08c-.44-.11-.86-.24-1.38-.34s-.31-.39-1.21-.48-.56.17-1.4-.29-1.11-.82-1.52-1-.09-.27-.77-.29-1,.58-1.28-.09-.12-.42-.37-1-.38-.34-.42-.88.23-.12-.15-1.1-.5-.75-.64-1.34-.23-.44-.17-1.08.48-.46.46-1-.13.17-.15-1,.23-1.12.09-1.62-.38-.28-.32-1a2,2,0,0,1,.32-1c.16-.35.31-.12.43-1.14a11.72,11.72,0,0,0,0-1.69c.07-.48,0-.69.4-1.09s1-.44,1.25-.63A2.31,2.31,0,0,0,188.69,3.6Z"/><path d="M243.4,75.2a8.28,8.28,0,0,1-1.46-.6c-.3-.19-.11,0-.55-.54s-.5-.59-.6-.9a1.32,1.32,0,0,1-.08-1,9.52,9.52,0,0,1,.35-1.19c.08-.38.23-.56,0-.75s-.48,0-.54-.65-.08-.63-.19-1.57.17-.41-.12-1-.34-.54-.32-1-.37-.58-.58-1-.31-.29-.4-1-.14-.65,0-1,.5-.22.25-.62a6.68,6.68,0,0,1-.43-.67,1.22,1.22,0,0,1-.09-1.58c.59-.9.77-.9,1.3-.84a5.46,5.46,0,0,0,1.87-.65c.4-.14.94.07,1.25,0s1-.64,1.59-.73,1.52.11,1.71.07.48-.4.82-.86a2.69,2.69,0,0,1,1.21-1c.5-.21.87,0,1.14-.42a10.9,10.9,0,0,1,1.17-1.35,2.5,2.5,0,0,0,.71-.86c.15-.35,0-.58.29-.89s.34-.07.44-.63a4.49,4.49,0,0,0,.13-.88c.06-.75,0-.77.27-1.06s.64,0,.48-1-.57-1.13-.32-2.11a4.52,4.52,0,0,1,.46-1.32c.36-.79.71-1.08.73-1.56a9.79,9.79,0,0,0,0-1.78c-.08-.56-.27-.93-.33-1.62a2.21,2.21,0,0,1,.06-1.15c.11-.21.31,0,.33-.52s.42-.73-.08-.77-.37-.19-.37-.69-.23-.71.12-1.07A2.65,2.65,0,0,1,255,35.6a3.65,3.65,0,0,1,1.92.23c.5.3.81.61,1.06.48s.44-.56.79-.62a6,6,0,0,1,1.46.27,1.91,1.91,0,0,0,1-.11,1.5,1.5,0,0,1,1-.06,2.26,2.26,0,0,0,1.23.21,2.77,2.77,0,0,1,.79-.08,3.38,3.38,0,0,1,1.15.27c.54.25.73.25,1.08,0A1.9,1.9,0,0,1,268,36c.25.14.85.52,1.27.35a1.81,1.81,0,0,1,1-.18,10.52,10.52,0,0,1,2-.34c.71.09,1.57-.19,1.59.42a8.7,8.7,0,0,1-.4,2.27c-.14.4.15.8-.23.92s-.67-.14-.6.33.23.51.16.94-.21.59,0,1a4.12,4.12,0,0,1,.21,1.22c.09.37.23.12.25.58s.15,1.17-.12,1.54-.15.3-.13.82,0,2.06.25,1.71.19-.73.65-1.15.73-.77,1.25-1.31.38-.44,1.23-.8,1.3-.29,1.51-.52.68-.27.89-.87.06-.72.75-.92,1-.46,1.74-.73,1.12-.4,1.75-.65,1.27-.27,1.31-.75.06-1.27.42-1.59a3.52,3.52,0,0,1,2-1.23,12.47,12.47,0,0,1,2,.13c.23-.09.36-.44.8-.36a1.87,1.87,0,0,0,.93,0,1.56,1.56,0,0,0,.74-.75,3.22,3.22,0,0,1,2-1.17c1-.29,1.27-.29,1.6-.08s.44.36.71.15a3.93,3.93,0,0,1,2-1.13,2.71,2.71,0,0,1,1.76.46c.25.12.43-.38,1.27-.44s1-.33,1.46.06a2,2,0,0,0,1.19.65,7.23,7.23,0,0,0,1.12.12c.74.07,1.82-.62,2.34-.2s.71.58,1.11.62a4.55,4.55,0,0,1,2.25.15,10.26,10.26,0,0,0,1.48.71c.77.29,1.09,0,1.69.39s.92.86,1.42,1a13.83,13.83,0,0,1,2.5,1.08c.9.54,1.23.48,1.59.92S319,40.42,319.7,41a8.35,8.35,0,0,1,1.77,1.46c.61.71.32.65.9,1.1s.88.69.92.82a2.29,2.29,0,0,1,.35,1c0,.46-.25.38.29,1s.46.06.8.75.87,1,1.19,1.63.5.75,1,1.63.18.58.77,1.27.83.62.83.89a4.92,4.92,0,0,0,0,1.34,2.77,2.77,0,0,0,.5,1c.34.48.57.94.76,1.21a1.32,1.32,0,0,1,.33,1c-.06.5-.4.65-.23,1.19a4.42,4.42,0,0,0,.46.92c.1.23.21.13.19.81a6.4,6.4,0,0,1-.13,1.63c-.12.36.25.13.25.69a4.94,4.94,0,0,1-.08,1.88c-.25.83-.34.83-.21,1.15s.33.35.73.91.79,1.07,1,1.4.29.61-.12,1a12.07,12.07,0,0,1-1.28.94,1,1,0,0,0-.42.81c.05.25.3.63.32.75a9.45,9.45,0,0,0,.33,1.15,2.17,2.17,0,0,1,.23,1,4.12,4.12,0,0,1-.15,1.28c-.08.1-.33.33-.14.56s.6.79.52,1.21a4.57,4.57,0,0,1-.5,1,2.21,2.21,0,0,0-.13.77,3.66,3.66,0,0,1,.11,1.32c-.13.39-.36.39-.61.64s-1,.09-.56.78.65.43.5,1a5.55,5.55,0,0,0-.23,1.58c.06.17.65.28.75.59a.86.86,0,0,1,.07.81c-.15.5-.11.65.12.73a.6.6,0,0,1,.42.84,4.51,4.51,0,0,1-.42,1.1c-.31.65-.1.8-.44,1.38s-.46.58-.37.88.14.23,0,1.23-.31,1.31,0,1.62.35.17.39.48a3.34,3.34,0,0,1-.12,1.32,13.51,13.51,0,0,0-.21,1.46,3.88,3.88,0,0,1-.31,1.3c-.22.37-.54,1.08-.38,1.37s.8.51.8.51a.57.57,0,0,1,.22.68c-.17.44-.28.27-.22.69s.33.36.34.94a2.05,2.05,0,0,1-.15,1c-.11.3-.32.67-.18.81s.51-.06.58.22-.37,1.75-.37,2.1-.24.31-.28.67-.16.13-.07.71.58.93.52,1.14a29.93,29.93,0,0,0-.19,3.28c0,.71.19.38.18,1.1a4.57,4.57,0,0,1-.18,1.59c-.14.21-.53,0-.17.43s.64.44.66.73-.27,1,0,1.41,0,.53-.17.66-.38.06-.4.34a3.45,3.45,0,0,1-.35,1c-.08.11-.32.14.2.27s1.17.17,1.13.58-.05,1.26-.82,1.39-1.34.33-1.7-.11-.38-.39-.6-.69.21-.5-.5-.39a6.55,6.55,0,0,1-1.75.23,5.58,5.58,0,0,1-2-.08,3.23,3.23,0,0,0-1.47-.23c-.77,0-.91.28-1.38.31s-.31-.11-.95,0-.63,0-1.3.14a1.58,1.58,0,0,1-1.17,0,3,3,0,0,0-1.15-.24c-.4,0-.4.09-1.11.14s-.83.22-1.33.08-.72-.47-1.16-.33a3.71,3.71,0,0,1-1.22.19c-.36,0-1.08-.17-1.12-.78a3.7,3.7,0,0,0-.16-1.07.85.85,0,0,1,.19-.92c.25-.21.31-.28.33-.56s.14,0,.2-.57.08-.59-.14-.81-.17-.6-.11-1.33-.13-.49-.05-1,.32-1.16.05-1.52-.69-.48-.69-1-.16-.27.17-1,.47-.77.49-1,.42-.4,0-.88-.92-.44-.69-.83a5.83,5.83,0,0,1,.51-.78c.14-.16.89-.91.54-1.44s-.65-.43-.23-1,.78-.4.5-1.11a11.34,11.34,0,0,0-.64-1.44c-.17-.28-.13-.19-.08-1.23a5.46,5.46,0,0,0,0-1.76c-.11-.42-.28-.37-.08-.89s.5-.14.1-.92-.83-.61-.77-1.49a4.34,4.34,0,0,1,.6-1.75c.11-.25.36-.5.18-.93a1.7,1.7,0,0,1-.2-1.07c.09-.32.49-.73.41-1.32a3.52,3.52,0,0,1-.16-1.55c.13-.87-.06-.59-.08-1.5s0-1,.21-1.42.62-.15.43-1A6.21,6.21,0,0,0,311,82.5a8,8,0,0,1-.48-2.52,4.7,4.7,0,0,1,.28-2.22c.31-.66.67-.36.39-1.13a21.67,21.67,0,0,1-.61-2.08,2.17,2.17,0,0,1,.25-1.58c.44-.55.55-.72.45-1.32a6.39,6.39,0,0,0-.48-1.7c-.22-.46-.63-1.58-.16-2.1s.5-.69.33-1a2.36,2.36,0,0,1-.11-1.44,2,2,0,0,0,.14-.8,2.44,2.44,0,0,0-.11-1.39c-.28-.46,0-.61-.53-1.1a3.1,3.1,0,0,0-1-.75c-.25-.08-.62-.22-.37-.67s1.08-1.61.53-1.76-.56-.15-.62-.67.12-.83-.18-1.09-.4.07-.69-.46-.17-.86-.54-1-.55-.57-.74-.8-.26-.24-.61-.39-.5.18-.47-.46.13-.67-.08-.92-.06,0-.47-.53-.5-.6-.7-.64a3.76,3.76,0,0,0-.72-.11c-.25,0,.55-.11-.39-.14s-.74.47-1.38-.19-.72-.8-1-.72.56,0-.61.09-1.36.22-1.78,0-.55-.69-1-.84-.82-.77-1.19-.79-1.08-.23-1.44,0,.19.27-.69.4a13.74,13.74,0,0,1-3,.2,2.54,2.54,0,0,0-1.44.08c-.28.14-1.13.12-1.63.33s-.09-.08-.9.31a6,6,0,0,1-1.57.38,2,2,0,0,0-.67.32c-.11.13-.47,1.19-.89,1.38a5.14,5.14,0,0,1-1.25.24c-.58.1-.44-.52-.77.5s-.08,1.29-.49,1.45-.8-.08-1.06.32-.72,1.15-1.05,1.59a1,1,0,0,1-.94.56c-.45.05-.95-.12-1.23.05a10,10,0,0,0-1,.81c-.34.3-1,1.33-1.37,1.65s-.5.5-.77.56-.63-.2-.5.17a1.83,1.83,0,0,1,.14,1,7.07,7.07,0,0,1-.64,1.81c-.32.55-.61-.08-.88.56a2.28,2.28,0,0,0-.28,1.3c0,.66.33,1.13.34,1.65a7.65,7.65,0,0,1,.19,1.47c-.05.7,0,1.41,0,2s0,.34-.12.73-.18-.19-.15.56a10.27,10.27,0,0,0,0,1.23c.08.57.2.39.22.92a6.06,6.06,0,0,1-.13,1.55c-.15,1.06-.25.69-.05,1.4a5.55,5.55,0,0,1,.16,2.34c-.14.47-.61-.33-.39.86a16.5,16.5,0,0,0,.39,1.75c.13.47.38.71-.06.86s-.3-.06-.58.44-.66,1.38-.22,1.16,1.08-.74,1-.16a19.33,19.33,0,0,0-.24,2c-.08.74.17.38-.12,1.35s-.66,1.28-.47,1.69.07.56.43.67.69-.3.72.31.25.76.16,1.24-.22.41-.34.86-.3.56-.13,1a3.45,3.45,0,0,1,.39,1.58,6.3,6.3,0,0,1-.28,1.07c-.16.56-.5,1-.22,1.31a3.85,3.85,0,0,1,.67,1.47c.08.43.35.5-.12.55s-.66.22-.53.35.26,1,.42.82.27-.35.28.18a4,4,0,0,1-.39,1.42c-.2.64-.23.67.06.91s.69.26.49.66-.38.4-.38.57-.23.25-.09.71.66.17.53.62-.19.27-.52.91-.79,1.19,0,1.18,1.08-.14,1.13.14-.05-.18-.21.55a3.12,3.12,0,0,1-.51,1.34c-.19.2-.36.28-.35.64s.47.19.22.82-.41.09-.44.73-.17.83.08,1.1.33,0,.39.43a4.47,4.47,0,0,0,.08.74,8,8,0,0,1,.31,1.3,3.42,3.42,0,0,1-.2,1.27.9.9,0,0,0,.22,1,1.13,1.13,0,0,1,.3,1c-.07.51.18.39.25,1s.09.84-.47.94-1.15.47-1.66.15.11-.56-.85-.45-1-.55-1.53.06-.45.8-1.25.82-1.21.53-1.74-.08-.27-.78-.94-.83a2.3,2.3,0,0,0-1.37.16,3.88,3.88,0,0,1-1.81.2c-.64-.06-.37.17-1.25,0s-.39-.22-1.17-.19-.36.26-1.16.39-1.25.34-1.67.2-.1-.65-1.08-.39-1.13.42-1.58.33-.36-.14-1-.53-.94-.22-.74-.77.35-.55.4-1,.54-.69.54-1.2-.11-.58,0-1.08.25-.27,0-.89a2,2,0,0,1-.25-1.16c0-.64-.2-.5,0-1s0-.75,0-1.52a5.4,5.4,0,0,1,.15-1.42,6.84,6.84,0,0,0,0-1.38,5.63,5.63,0,0,1,.22-1.71,5.71,5.71,0,0,0-.24-1.23,2.41,2.41,0,0,1-.11-2c.41-1.14-.14-.92.16-1.61a3.92,3.92,0,0,0,.34-1.4c.11-.66.66-.79.19-1.3s-.61-.49-.69-.63-.3-.36-.11-1.18A3.39,3.39,0,0,0,253.6,96c-.09-.63-.63-.8-.22-1.4s.71,0,.49-1-.47-1.85-.52-2.19a6.53,6.53,0,0,1,.26-2.44,3.78,3.78,0,0,0,.43-1.57c0-.57.36-.7.2-1.25s-.41-.5-.44-.91a15.37,15.37,0,0,1,.35-1.59,2,2,0,0,0-.36-1.53c-.35-.68-1-.62-.83-1.59s.09-1.37.2-2,.6-.41.5-1.06-.15-.33-.42-.74-.89-.7-.69-1.52a13.07,13.07,0,0,0,.44-1.76c0-.52-.33-1.91-.81-1.21s-.44,1.16-.93.69-.78-.63-1.16-.41a5.14,5.14,0,0,1-1,.52c-.72.33-.61.09-1.08.11s-.89-.11-1.11.12a9,9,0,0,0-.61.74c-.25.33-.42.59-.63.66s-.61-.07-.78.14A1.81,1.81,0,0,1,243.4,75.2Z"/><path d="M362.2,66.35s.63-.82.34-1.13a11.12,11.12,0,0,1-.81-1.06,2.89,2.89,0,0,1-.25-1.22c0-.41-1-.79-.75-1.38s.44-.63.12-1-.93-1.35-.28-1.35,1.66.31,2.26-.34.78-1.16,1.22-.85.25.47,1.16.32.62-.6,2.25-.91,1.81-.22,2.31-.63,1.44-.53,1.72-1a13.89,13.89,0,0,0,.76-1.41C372.47,54,374,53,374,52.73a1.61,1.61,0,0,0,.06-.59,3.87,3.87,0,0,1,0-1.19c.13-.28.32-.16.69-.81a6.15,6.15,0,0,1,.53-.88c.26-.34.38-.34.51-.75a2.21,2.21,0,0,0,.15-1.25c-.12-.38,0-.82-.22-1.51s-.18,0-.12-1.56-.35-2.25,0-2.88-.09-.63-.25-.59-.56-.22-.38-.54.66-.59.82-1,.56-.41.18-.84-.46-.47-.46-.79-.72-.69-.47-1.19.84-1.09,1.25-1.12.84-.25,1.19.15.4.57.72.69.37.25.78,0,.28-.34.88-.37.5-.16,1.09,0a5,5,0,0,0,1.78.4,8.78,8.78,0,0,0,1.45-.62,3.16,3.16,0,0,1,1.65-.19c.47.12.63.22,1.19.41a3.79,3.79,0,0,0,1.41.09,3.4,3.4,0,0,1,1.68.08c.79.3.67.34,1.36.17a15.43,15.43,0,0,1,1.89-.63,4.17,4.17,0,0,1,2.2.17c.94.42,1,.25.87.59a2.26,2.26,0,0,0-.35,1.29,3.06,3.06,0,0,1-.36,2.11c-.45.54-.64.37-.77,1s0-.06-.21,1.23a10.55,10.55,0,0,0-.21,2.48c0,.55-.16,2.15.19,1.8s-.1-.77,1.19-.77,1.34.16,1.57-.21a4.71,4.71,0,0,1,1.08-1,9.15,9.15,0,0,1,1.34-.88c.56-.31,1.08-.35,1.44-.71s.29-.83.77-1.17a12.4,12.4,0,0,1,2-.87c.31-.13.58.1.85-.32s.4-.18.94-.71.77-1,1.23-1.29.86-.77,1.42-.94.19-.33,1-.31,1.17.1,1.3-.21a2,2,0,0,1,.77-.81,2.4,2.4,0,0,1,1.27-.21c.48.1.69.25.9.12s.59-.64,1-.81a3.15,3.15,0,0,1,1.48-.27c.71,0,.94.35,1.38.1s.1.13.69-.46a2.24,2.24,0,0,1,1.21-.81c.54-.17.25-.39,1.15-.13a11,11,0,0,0,1.25.44,3.21,3.21,0,0,0,1.9.11c1.25-.19,1.44-.77,1.65-.46s0,.52.68.54.19-.25,1.3-.35a4.72,4.72,0,0,1,2.73.12c1.48.44,1.67,0,2.25.71s.25.75.84,1,.79.15,1,.27a15.07,15.07,0,0,1,2.23.75c1.11.55.88.29,1.5.86s.34.06,1.34.77,1,.4,1.09.81a1.32,1.32,0,0,0,.75,1.11,12,12,0,0,1,1.46.56,19.5,19.5,0,0,1,2.32,2.19c.56.73.49,1,.87,1.42s.56.5.58.92-.45.25.05.71a5.1,5.1,0,0,1,.71.82c.23.25,1.5,1.08,1.52,1.7a4.31,4.31,0,0,0,.12,1.38c.17.52,1.21,2.9,1.44,3.55s.4.42.5,1.46.17,1.15.28,2a8.71,8.71,0,0,1,.14,3.07c-.27.73-.39.92-.23,1.11s.81.27.84.79-.54.65-.54,1.17.26.37.16,1-.94.67-.62,1.21.5.48.75.92-.32,1,.1,1.56.23.69.06.82a.73.73,0,0,0-.31.83c.08.54-.92.56-.13,1.29s.59.9.63,1.28.42,1.87-.14,2.65-.46.91-.36,1.25-.17.54-.17,1,.88.52.61.79-.63.5-.54.71,0,.71.46.79,0,.63-.09,1-.52.61-.5.9a1.43,1.43,0,0,0,.27.82,3.73,3.73,0,0,1,.29.68c.19.4.32.28.23.71s-.2.51-.2.82-.42,1.29-.19,1.71a13.34,13.34,0,0,1,.58,1.58.82.82,0,0,1-.08.84c-.21.4,0,.77-.44,1.23a.9.9,0,0,0-.19,1.08c.13.26.65.63.71,1s.36.72.13,1.2-.46,1.26-.61,1.59a1.17,1.17,0,0,0-.1,1c.12.44.35.44.48,1a4.84,4.84,0,0,0,.25,1.07,2.72,2.72,0,0,1,.16,1c0,.17-.1,1.23-.14,1.46a1.1,1.1,0,0,0,0,.8c.12.58.29.51.16.89a8.68,8.68,0,0,0,0,1.5,1,1,0,0,0,0,.82c.16.56.2.48.08,1s-.5.63-.35,1.48,0,1.32.08,1.55a7.51,7.51,0,0,1,.69,2.12,14.12,14.12,0,0,1,0,1.59c0,.65.23.71,0,1.52s-.13,1.05-.34,1.38-.12-.19.07.56a3,3,0,0,1,.18,1.26c0,.35,0,.45.42.79a5.71,5.71,0,0,1,1.27,1.69c.07.23,0,.29-.37.44s-.75.06-.75.39,0,1-1.09,1.09-1.11.5-2.13.1-1.23-.77-1.73-.73a9,9,0,0,1-1.54.11,5.32,5.32,0,0,1-1.9-.23c-.21-.11-.29-.21-1,0s-.52.43-1.44,0-.44-.65-1.32-.69a12.6,12.6,0,0,0-2,0c-.42.06-1-.09-1.19,0a3.31,3.31,0,0,1-1.58.48,9.32,9.32,0,0,0-1.86.08c-1.06.17-2.34-.33-2.17-1.1a6.21,6.21,0,0,1,.69-1.49c.14-.39.35-.52,0-1a3.48,3.48,0,0,1-.54-1.67c.06-.21.21-.48.56-1.31s.59-.71.33-1.1-.6,0-.5-1,.11-1.52.42-1.92.48-.41.08-1,.11-.37-.39-.85a2.14,2.14,0,0,1-.73-1.46c0-.44.29-.32.21-1.17s-.13-1.73.16-2a2.29,2.29,0,0,1,.67-.55c.46-.27,1.07.17.52-.64a1.76,1.76,0,0,1-.31-1.8c.19-.46.15,0,.1-.58s-.12-.48-.16-1.13-.3-.83-.52-1.38-.3-.31-.25-.85-.11,0-.09-.92.23-.79.4-1.36a2,2,0,0,1,.42-1c.41-.67.73-.64.23-1.13s-1.05-.6-.84-1,.36-.12.36-.5-.34-.21-.36-.56-.14-.37.25-.9.63-.89.61-1.08a1.86,1.86,0,0,0-.13-1.44c-.4-1.13-.54-.94-.5-1.75a4.43,4.43,0,0,1,.29-1.84c.25-.48.46-.44.17-.81s-.44-.09-.31-.73a4.5,4.5,0,0,0,.2-2.15,3.48,3.48,0,0,1-.33-1.61,14.41,14.41,0,0,1,.21-1.44c0-.27-.17-.46-.08-1.08s.29-.59.23-1.13,0-.73-.28-.94a.87.87,0,0,1-.08-1,1.74,1.74,0,0,0,.25-1.06,1.13,1.13,0,0,0-.25-.82,2.12,2.12,0,0,1-.35-1.27c0-.52-.27-.9-.34-1.44a3.6,3.6,0,0,1,.13-1.46c.1-.23.29-.17.1-.9s-.18-.87-.52-1.21a2,2,0,0,1-.5-.85,9.37,9.37,0,0,1-.19-1.13c-.12-.52-.21-.33-.33-1.05s.06-1.66-.19-2-.58-.36-1-.65-.59-.35-.77-.83a5.91,5.91,0,0,0-.59-1.38,2.49,2.49,0,0,1-.31-1.6c0-.3-.08-.25-.67-.61a3.37,3.37,0,0,0-1.4-.48,2,2,0,0,1-1.33-.62c-.67-.57-.42-.61-.78-.94s-.37-.59-.91-.48a3,3,0,0,1-1.3-.13c-.39-.08-.64-.52-1.48-.54s-.48.31-1.52-.13a9.36,9.36,0,0,0-1.92-.75c-.29,0-.77.21-1.38.27s-.58-.27-1.56,0a15.78,15.78,0,0,0-1.88.59,3.18,3.18,0,0,0-.94.33,7,7,0,0,0-.75.5c-.52.42-.79,1.29-.94.75s.82-1-.12-.89-1.42.29-1.69.91-.38.73-.88.9a19.6,19.6,0,0,0-2,.9c-.77.37-.59,0-1.21.42s-.9.27-1.65.66-.46-.19-1,.61a12.39,12.39,0,0,1-1.8,2c-1,1-1.17.9-1.31,1.42a1.82,1.82,0,0,1-.61,1.08,3.82,3.82,0,0,0-.56.67c-.17.25.08.69-.38.88s-1.5-.27-1.23.58.82.81.61,1.52-1,1.09-1.13,1.67.11,1.07,0,1.44a9.43,9.43,0,0,0,.07,1.84,5.5,5.5,0,0,1-.11,1.86,2.3,2.3,0,0,0,0,1.46,5.17,5.17,0,0,1,0,2.37c-.19.49.22.88.18,1.34s-.68,1-.66,1.69.87,2.63.77,3.13-.25.63-.38,1.19a7.11,7.11,0,0,0-.1,2.23,7,7,0,0,1,.14,1.71c0,.82-.33.65-.1,1.28a8.49,8.49,0,0,0,.35,1,3.49,3.49,0,0,1,.27,1.39c.07.77.38.82-.08,1.55s-.9.52-.77,1.4,0,1,.23,1.29a5.66,5.66,0,0,1,.25,2.52c-.17.57-.54-.19-.44.8a17.79,17.79,0,0,0,.63,2.21c0,.42.43,3.65.14,4.13s-.75.13-.62,1.06.12.82.33,1.13-.08.61-.06,1.77-.31,1.28-.07,1.67.88.23.69,1-.87,1-.85,1.73-.59,1.25.1,1.9.88-.3.84,1.25-.56,2.07-.29,2.65.45-.08.5,1,.14,1.92-1.07,1.9a24.72,24.72,0,0,0-2.48-.13c-1.63,0-.4-.54-2.09-.29a19.06,19.06,0,0,1-3,.13c-1,.06-1-.17-1.79-.13s-2.28.17-2.34-.25.9-.86-1-.23-2.11,0-2.65.38-.15.62-1.07.62-2.29.17-2.83-.67-1.07-.62-.57-1.23.92-.73,1.07-1,.33-.35,0-.89-.67-.55-.44-1.07.4,0,.25-.85-.39-.65-.12-1.09a5,5,0,0,0,.43-1.21c.26-.71.42,0,.28-.94s-.25-.64-.44-1.27-.06-.71.21-1.25.19-.54-.09-1-.52-.48-.23-.92.65-.33.46-1a4.34,4.34,0,0,0-.5-1.11c-.21-.41-.62-.94-.06-1.35a.52.52,0,0,0,0-.94c-.21-.13-.25-.29-.34-1.44s.3-2.65.23-3.09.19-.52,0-1.42-.12-.94.13-1.37a3.07,3.07,0,0,0,.5-.92c.19-.59,0-.67-.11-1.44s-.27-.8-.14-1.23a3.24,3.24,0,0,0,.25-1.13c0-.54.17.27-.06-1a14.26,14.26,0,0,0-.4-1.92c-.23-.9-.17-.11-.15-1.23a5.31,5.31,0,0,1,.15-1.94c.25-1,.52-.94.56-1.67a5.65,5.65,0,0,0-.08-1.32c-.06-.67-.17-.92-.25-1.63a3.58,3.58,0,0,1,0-1.23c.06-.6.25-.73-.06-1.31s-.55-.31-.46-.94.31-.48-.11-1-1.14-.54-.87-1.09.79-.83,0-1-1.42-.16-1.44-.66-.55.16-.67.35-.44,0-.84.42-.31.66-.79.89-.62.55-1.21.42-1-.19-1.25,0,.13.25-.46.4a4.65,4.65,0,0,0-1.31.35,2.45,2.45,0,0,1-.76.5,1.78,1.78,0,0,1-1.46-.23c-.31-.35-.6-.33-.35-.87a2.48,2.48,0,0,0,.29-1.11,1.82,1.82,0,0,0-.21-.75,10.31,10.31,0,0,0-.45-1.36c-.17-.25-.36-.41-.26-.77s.55-.39.32-.83-.09-.46-.54-.79A2.6,2.6,0,0,1,362.2,66.35Z"/><path d="M573.49,76c-.1-.35.25-.32.25-1.29a4.07,4.07,0,0,0-.85-2.09c-.19-.35,0-1.07-.06-1.82s.16-.56.25-1.47a9.31,9.31,0,0,0-.53-3,3.56,3.56,0,0,1-.06-1.66c0-.85-.35-.78-.44-1a3.08,3.08,0,0,1-.19-1.16c0-.62-.34-.69-.91-1.53s-.31-.38-.31-.82a3.61,3.61,0,0,0-.44-1.4,7,7,0,0,1-.56-1.35c-.16-.53-.1-.94-.25-1.5s-.47-.22-.66-.6,0-.28-.78-.91-.5-.65.18-.81-.06-.91-.09-1.75-.25-.91-.63-1.44-.4-.28-1.09-1a5.63,5.63,0,0,0-1.72-1.29,1.83,1.83,0,0,1-.91-1,18.22,18.22,0,0,0-1-1.91c-.47-.75-1.19-1.28-1.41-1.65s-.84-.54-1.5-1.19a1.86,1.86,0,0,1-.72-1.16c-.22-.6-.91-.94-1.63-1.57s-1.5-.53-2.88-1-.9.09-1.62.19-.57-.47-1.32-1.25a8.72,8.72,0,0,0-2.22-1.72c-.91-.54-1.16-.13-1.72-.22a5.42,5.42,0,0,1-1.94-.88c-.78-.5-.75.38-1.22,0s-1.22-.22-2.19-.78-1,.28-1.38.37-1,.19-2.32-.66-1.19-.53-1.81-.25a8,8,0,0,1-1.13.35c-.59.22-1,.53-1.66.15a13.56,13.56,0,0,0-1.59-.62c-.82-.35-.66.41-.85.44a4,4,0,0,0-1.5-.16,22.75,22.75,0,0,0-3,.53c-.29.16-.79,0-1.48-.15s-1.28.62-1.65.75-.85,0-1.16.15a4.26,4.26,0,0,1-1.47.57,2.81,2.81,0,0,0-1.41.15,6,6,0,0,1-2.13.75c-.63,0-.69.47-1.78.66a4.06,4.06,0,0,0-2.1.88c-.6.44-1.69,1.22-1.69,1.69s-.78.22-1.41.41a2.22,2.22,0,0,0-1.31,1,3.71,3.71,0,0,1-.85.87l-.56.57c-.16.15-.47-.19-.88,0s-.81,1.06-1.5,1.53a5.56,5.56,0,0,0-2,1.75,22.91,22.91,0,0,1-2.13,2.41c-.19.32-.56.25-1,1s-1,1.25-1.47,2.26a4.93,4.93,0,0,0-.41,2.41c0,.4-.28.5-.59,1a7.29,7.29,0,0,0-.57,1.72c-.09.31-.78.53-1.84,1.78a3.47,3.47,0,0,0-.88,2.73,11.74,11.74,0,0,0,0,2.78c.12.85-.22.72-.44,2a3.49,3.49,0,0,1-.56,1.6,2.36,2.36,0,0,1-1.63,1.09c-.66.16-.53-.28-.88-.62s-.68.37-1.78,0-.81.06-1.47,0-.88-.5-1.35-.66-.9.13-1.37.13-.35-.1-.88-.72a1.74,1.74,0,0,0-1.35-.75c-.46-.07-1.12.56-1.56,1.47s0,1.37.25,2.22,0,.22-.25.85a8.76,8.76,0,0,0-.5,1.75c-.16.65-.06.25.34.87s.19.54-.09,1.13,0,0-.16,1.06,0,.76.25,1.47-.22.63-.65,1,0,.18.15.56.28.38.1.85-.5,1,0,1.6,1.16,1.59,1.16,1.59a2.53,2.53,0,0,0,1.81.62c.63,0,.47,0,1.75-.09a5.11,5.11,0,0,0,1.69-.19c.63-.15.66.13,1.19.56a2.78,2.78,0,0,0,1.75.57c.63,0,.29-.13,1.22-.28s.38.34,1,1,0,.59-.16,1.16-.06.53.19,1.34a7.66,7.66,0,0,0,.63,1.41c.25.6.09.6.28,1a2.73,2.73,0,0,1,.47,1.19c.18.94-.16.5.28,1s.59,1.26,1.34,1.57.07.81,0,1.19a3.77,3.77,0,0,0-.09,1.37c0,.91.94,1.48,1.31,1.76s.5.31,1.13,1.47,0,.5,0,1.09.22.76.75,1.57a8.21,8.21,0,0,1,.72,1.72,2.18,2.18,0,0,0,1.16.63c.47.06.59.62.78.75a3.63,3.63,0,0,1,.66,1.22c.12.37.15.5.34,1.22s.6.41,1.16.78.56.44.75.57a3.39,3.39,0,0,1,.56,1.22c.22.56.29.56.79.9a2.44,2.44,0,0,0,1.37.54c.91.18.5.12.91.75s.16.9.53,1.44a1.93,1.93,0,0,0,1.63.81c.63,0,.63-.25,1.66.88s.31.72.91.81.75.19,1.75.34.35.38,1.25.38a8.42,8.42,0,0,1,1.63.16c.84.09.88.43,1.22.84a1.43,1.43,0,0,0,1.25.47,2.64,2.64,0,0,1,1.38.38c.69.31.34.28,1.06.53s.16.37,1,.78,1.19-.28,1.78-.47.72.35,1.53.91.6.75,1.44.81a2.92,2.92,0,0,0,1.57-.12,20.24,20.24,0,0,1,2.19-.16,2.62,2.62,0,0,1,1.81.22,10.86,10.86,0,0,0,2.66.12c1,0,1.26-.09,2.79-.18s.69-.1,1.34-.13a8.66,8.66,0,0,0,1.38-.19,6.33,6.33,0,0,0,1.22-.12,5.55,5.55,0,0,1,1.51-.09c.56,0,1.56,0,2.84-.1a15.15,15.15,0,0,0,2.16-.37c.54-.07,1-.6,1.35-.85s.53.13,1.38.1a10.22,10.22,0,0,0,1.69-.16,2.77,2.77,0,0,0,1.34-.57c.25-.21.35-.43,1.41-.34s1.63-.5,2.54-.66.75-.43,1.09-.75.75.32.91.63.22.09.75-1.07.59-.18,1.13-.65,1.15-.38,2.28-.91,1.25-.22,2.1-.41.62-.75,1.09-1.31.79.09.69.31.85.28,1.63-.47a3.11,3.11,0,0,0,.63-2.94c-.26-.88.06-.75.31-1.13s-.5-.65-.69-1.19.41-.72.56-1.69a19.29,19.29,0,0,1,.32-2.44c.21-.62-.07-.5-.07-1.12s.19-.57.5-1.32.25-.84.1-1.19a1.57,1.57,0,0,1-.25-1.12c.09-.5.22-.82.34-1.51s-.37-.53-.66-.84-.46-.32-1.75-.19-.53.41-.94.81-.72.54-.84.85a1,1,0,0,1-.82.72c-.5.06-.47.47-1.15.78s-.72.25-1.29.53a1.92,1.92,0,0,0-.78.66s-1.47.28-2.35.41-.84.81-2.06,1-1.13.78-1.32,1-.34,0-1.75.07a4.73,4.73,0,0,0-2,.37,13.49,13.49,0,0,0-1.94.75c-.91.38-1.07.6-1.63.35a4.13,4.13,0,0,0-1.85,0c-.56,0-.93.5-1.69.69s-1,0-2.44-.25-.75,0-1.31.43-.94,0-1.79-.37-2.44.44-3.44.44-.84,0-1.34-.13a9.06,9.06,0,0,1-1.13-.59c-.66-.32-1-.13-2-.1a7.2,7.2,0,0,1-1.19,0c-.75,0-.47-.09-1.07-.25s-.56-.28-1.06-.69a4.73,4.73,0,0,0-1.82-.78c-1.12-.37-.5.35-.9.35s-.38,0-1.26-.47-.87-.25-1.69-.72a11.76,11.76,0,0,0-1.59-.78c-.57-.25-.78-.41-1.94-1s-.94-.78-1.19-1.53-.38-.41-.63-.84-.53-.73-.72-1.13-.87-.63-1.37-1.1-.22-.65-.72-1a1.88,1.88,0,0,1-.85-1.25,3.37,3.37,0,0,0-.5-1.19c-.38-.63-.25-.25-.63-.94a2.37,2.37,0,0,1-.43-1.16c-.22-.9-.79-1.81-.94-2.37a9.76,9.76,0,0,0-1.22-1.91c-.5-.79.28-.69.72-1.32s.56-.31.72-.37.47.09.94.09a10.1,10.1,0,0,0,1.68-.22c1.29-.19,1.07.06,1.63.06s.91,0,2,0,1,0,1.34-.28.34.1,1.13.06.53,0,1.5-.06.66.13,1.59.22.54,0,1.69-.16.54,0,.13.25.22.1,1.88.16a7.72,7.72,0,0,0,.92,0s0,0,.42.12a3.48,3.48,0,0,0,1.57.12,2.56,2.56,0,0,0,1.81-.69,2.42,2.42,0,0,1,1.76,0,12.94,12.94,0,0,0,1.53.6c.59.16,1.06-.31,1.41-.53s1.28.31,1.85.4.84-.22,1.4-.31a14.58,14.58,0,0,1,2,0,2.47,2.47,0,0,0,1.65-.38c.88-.37.73-.15,1.79-.25a2.09,2.09,0,0,1,1.31.13,9.73,9.73,0,0,0,1.63.44c.53,0,.53-.22,1.85-.38s.78-.22,1.72-.44.78-.06,1.63.1,1-.13,2-.31.56-.19,1.1-.73.78.29,1.43.29a4.78,4.78,0,0,0,1.19-.22c.44-.07,1.1-.1,2-.19a18.21,18.21,0,0,1,2,.12,3.74,3.74,0,0,0,1.94-.34c.91-.31.85.16,1.72,0a7.26,7.26,0,0,0,1.63-.44c.5-.19.78.16,1.25.16s.5-.1,1.07-.44.31-1.56.22-2.19.25-.72.28-1.13A9.07,9.07,0,0,0,573.49,76ZM553,69.73c-.44.19-.94,0-1.6.22s-.53.44-.78.44-.75-.32-.82-.22a9.19,9.19,0,0,1-1.22.5c-.59.25-.75.43-1,.53s-.62,0-.78.09a.37.37,0,0,1-.41.06,1.27,1.27,0,0,0-.78-.15c-.5.06-.87-.38-1.09-.28s0-.16-.69.12-1.26-.06-1.57.13-1.06.28-1.22.56,0,.34-.69.34a2.8,2.8,0,0,1-1.16-.18c-.4-.13-.59-.5-1.25-.5a6.13,6.13,0,0,0-1.34.06,2.15,2.15,0,0,1-1.07,0c-.62-.1-.78-.31-.9,0s0,.56-.38.4-.6-.43-.94-.12a2.19,2.19,0,0,1-1.09.53c-.29,0-.25.31-.79,0a5.32,5.32,0,0,0-.87-.56c-.1,0-.07-.54-.44-.57a3.67,3.67,0,0,0-1.06-.15c-.85,0-1,.14-1.35,0s-.13,0-.72.23-1.16.28-1.6.47-.58.34-1,.31a8.61,8.61,0,0,0-1.5,0c-.23.06-.23,0-.44.08s-.23.12-.55.06-.39-.12-.62,0-.24.22-.61,0-.53-.41-1.05-.27a1.93,1.93,0,0,1-1.21,0c-.5-.13.05-.5-.82-.55s-.82-.24-1.82-.3a4.27,4.27,0,0,0-1.31,0c-1.85.09-1.87-.19-1.87-.19a1.78,1.78,0,0,0-.18-1.07,1.4,1.4,0,0,1-.35-1.25c.1-.69,0-.91.22-1.16a4.75,4.75,0,0,0,.81-1.37c0-.29-.24-.19,0-.82s.25-.75.19-1a2.24,2.24,0,0,1-.12-.91c0-.5-.13-.87,0-1.09s.09-.31,1-.94.56-.56,1-.94.31-.63.47-.81a2.75,2.75,0,0,0,.56-1c.13-.44.16-.63.56-.85a3.46,3.46,0,0,0,.94-.53,2.84,2.84,0,0,0,.69-.88,5.93,5.93,0,0,1,.35-1.5c.34-1,.06-.78.62-1.22s.6-.72,1.13-.91a5.52,5.52,0,0,0,2.16-1.09,5.51,5.51,0,0,1,.91-1,10.56,10.56,0,0,1,1.4-1.22c.35-.19.51-.41.72-.25s1,.28,1.13.06.28-.66.53-.38a.91.91,0,0,0,1.07.35c.62-.13.06-.32,1.19-.35s1.15,0,1.66-.34,1.31-1.1,1.31-.75-.16.56.31.5a3.38,3.38,0,0,0,1.22-.6,1.15,1.15,0,0,1,1.16-.18,9.28,9.28,0,0,0,1.38.34c.66.09.41,0,.75-.12a1.55,1.55,0,0,1,1.13,0c.43.16.43-.12,1,.25s1,.69,1.31.94a7.56,7.56,0,0,0,2.1,1c.44,0,1.06.1,1.19.54s.5.28,1.13,1.09a5.22,5.22,0,0,0,1.4,1.32c.47.34,1.25.37,1.41.62s-.06.25.25.6a5.42,5.42,0,0,0,.72.65c.35.28.5.22.6.69a16.57,16.57,0,0,0,.9,1.79c.13.34.94.43,1.07.87a1.76,1.76,0,0,1,.12,1,5.31,5.31,0,0,0,.25,1.81,3.4,3.4,0,0,1,.44,1c0,.41,1,1.57,0,1.63s-.53.41-.15,1,.75,1,.62,1.32,0,.81-.31,1.19a1.56,1.56,0,0,0-.37,1.25c0,.53.09.87.31,1S553.43,69.54,553,69.73Z"/></g></g></svg>