<svg xmlns="http://www.w3.org/2000/svg" viewBox="0 0 286.37 169.29"><g id="レイヤー_2" data-name="レイヤー 2"><g id="本体"><path d="M2.9,65a10.26,10.26,0,0,0,.66-2.23c0-.61-.17-.49-.71-1.39s-.49-.55-.73-1.46.06-.6-.48-1.21-1.4-1-1.4-1.69.25-.54.06-1.57S-.24,54.09.24,53.3a15.5,15.5,0,0,0,.85-1.57A2.33,2.33,0,0,1,2,50.61,2.73,2.73,0,0,0,3,49.7c.33-.48.78-1.06,1.3-.72S5.35,50.31,5.89,50s.67-.79,1.25-1.06a1.66,1.66,0,0,1,1.18-.24,2.13,2.13,0,0,0,1.81-.88c.52-.66,2-1.12,2.3-.54s.94,1.2,1.45.54,1-1.79,1.76-2.06,2.14.19,2.9,0,1.57-.12,2.06-.82A5.06,5.06,0,0,1,22,43.53c.39-.24.94-.12.91-.93s-.25-1.42.24-1.88S24.4,40,25,39.45a5.38,5.38,0,0,0,.94-1c.57-.7,1-.28,1.3-1.16s.45-.45.57-1.35-.06-1.67.42-2.18.76,0,.85-1.06,0-.42.1-1.72a9.76,9.76,0,0,1,.35-2.49c.24-.91.55-.18.31-1.38a5.61,5.61,0,0,1-.33-2.39c.12-1.09,0-1,.21-2.12s1.05-.85.09-2-.09-.45-.76-1.79a11.62,11.62,0,0,0-1.2-2A3.61,3.61,0,0,1,27,14.53a5.89,5.89,0,0,1,.55-1.87c.45-1.18,1.21-1.3,1.21-1.84s-.69-.4-.81-1.31-.61-1.54.2-3.11,1.36-2.54,2-2.42,1.38.18,1.69,1.12.63,1.17,1.23.81S34.33,4.79,35,4.46a5.78,5.78,0,0,1,3.23-.24c.94.27.64.57,2.12.82a12.79,12.79,0,0,0,3.18.48c1.69,0,1.59-.75,2.93-1a6.28,6.28,0,0,1,2.87.36c.94.15,1.06-.24,2.42-1S53.28,2.41,55,3.19s.69.18,2.6.88,2.06,1,2.36,1a2.5,2.5,0,0,0,2.29-.17c1.49-.73,1.94-1.76,3.72-1.13s1.91-.11,1.31,2-1,1.75-.06,2.5.63.69.15,1.94-.25,3.47-1.12,4.87-.94,1.32-.79,3.24a20.42,20.42,0,0,0,.6,3.84c.31,1.27.91,1.66.4,3s-1.33,4.53-.52,3.6a21.89,21.89,0,0,1,3.66-3.18c1.88-1.39,1.09-1.61,2.94-2.72a17.05,17.05,0,0,0,3.45-2.3c.75-.78.78-.09,1.11-.91s-.24-1.42,1.46-1.63,2.45-.69,2.68-1.09a4.59,4.59,0,0,1,1.49-1.09c.63-.36.85-1.48,2.12-1.57s1.78-.91,2.5-.58.91.07,1.09-.48A7.75,7.75,0,0,1,89.9,11.3c.52-.55.43-1.09.82-.79s1.39.51,1.67-.06-.34-.33.75-.66.4-1.42,2.18-1.12,1.33.48,2.18,0,2.39-3.36,3.39-3.3.81,1.51,1.6.91A5.62,5.62,0,0,1,105.42,5a7.51,7.51,0,0,0,3.11-1.25,4.3,4.3,0,0,1,2.64-1.26c1.21,0,2.53-.76,3.2-.39s1,1.6,2.12,1.26.42-.54,1.6-.54,2.81.36,3.54.06,2.23-1,3.24-.85.93-.39,2.33-.42,1.62-.42,3,.18,2.22,1,3.18,1.48A4.61,4.61,0,0,0,136,4a14.33,14.33,0,0,1,5.21,1.27c1.32.73,1.42,1.69,2.41,1.85a5.84,5.84,0,0,1,2.33.44c1,.49,2,1.22,2.63,1.16s1.16.54,1.87,1.06.37,1.06,1.58,1.17a2.67,2.67,0,0,1,1.87.58,5.9,5.9,0,0,1,1.79,1.18c.94.88.81,2.23,1.39,2.29s.84,0,.94,1,.09,1.15,1.09,1.45,1.39,1,2.09,1.93.57.12,1.26.91.73.61.73,1.45,1.24,2,1.3,2.85.12.6.93,1.24,1.88,1,2,1.56.07,1.31.91,1.39a1.37,1.37,0,0,1,1.24.92c.12.3.48,1.9.82,2.08s-.06-.21,1.5-.18,3.46,1,3.52.27-.4-.57.36-1.36a5.06,5.06,0,0,0,1.36-1.87c.79-1.42.67-.43,1.42-1.58a9.78,9.78,0,0,1,1.67-2.47c1-1.07.27-.71,1.6-1.34s2.6-.51,3.17-1.54.52-1.58,1.49-2.17.72-.61,2.05-1.58,1.69-.57,2.48-1.66a11.94,11.94,0,0,1,1.33-1.58,7,7,0,0,1,2.18-1.81,6.61,6.61,0,0,0,2.24-2,4.9,4.9,0,0,1,3.08-2.38c1.84-.37,1.57.27,2.45-.64s.51-1.06,1.6-1.54,1.76-.7,2.15-.19.18.43.76-.12,0-.39,1.12-.57,1.29.09,2.59-1,1.7-2,3.21-1.42,1.51.61,2.46.25,1.47,0,2.59-.64,1.24-1.06,2.45-.76.93.16,2.63-.18,1.57-.51,3.27-.24,2-.12,3.27.36,1.44,1.27,2.2.15,1.6-.09,1.88-.61-.28-1.5,1.18-1.36,2.33.49,3,.22a9.27,9.27,0,0,1,4.32.48c1,.46.16-.27,1.7.79s1.06,1.3,2.75,1.54a13.66,13.66,0,0,0,2.9.21A6.48,6.48,0,0,1,254,4.68c.93.72,0,1.17,1.59,1.45s1.64,0,2.27.27,2.84,1.21,3.48,2.15.51.2,1.48,1.33.36,1.3,1.6,1.66,1.07.12,1.73.88.42,0,1.3,1.3-.49,2.59,1,2.53,1.19-.35,2,.46a5.79,5.79,0,0,0,1.91,1.36c.84.45.09.12,1.06,1.85s.21,1.78,1.24,2.78.54,1.36,1,2,1.19-.18,1.79,1.66,1.57,2.22,1.75,3.37a5.8,5.8,0,0,1,.06,2.14,5.22,5.22,0,0,0,0,2.21c.21.88-.72.15.51,1.63s2.55,3,2.94,4.48a9.85,9.85,0,0,1,.27,3.51c-.08.51-1,1.23-.57,2s1,1.15,1.06,1.93,1,1.43.64,2.43-.7.06-.32,1.81.46,2.06.19,2.72-.24.52-.06,1.39.27,1.16.51,2.27.43.36.33,2,.19,2-.3,2.89a16.14,16.14,0,0,0-1,2.7c-.67,1.94-.77,1.63-.09,2.78a9.92,9.92,0,0,1,1.24,4.39,10.88,10.88,0,0,1-.67,3.63c-.3.81-.42.85-.33,1.36s-.22.27,0,1.15.6,1.78.06,2.78-.52,1.75-.15,2.09.76,0,.76,1-.22.09.38,1.24.7.85.43,1.76a14.07,14.07,0,0,1-.73,2.66c-.33.48-.36-.18-.26,1.14s-.52,2-.4,2.7.24-.21-.12,1.27-.43,1.3,0,2.33a2.67,2.67,0,0,1,.18,2.39c-.36,1-.87.09-.33,1.36s.88,1.09.9,2,.06.76.06,2.09.16,2-.18,2.45a2.44,2.44,0,0,0-.57,2.17c.23,1.1.23.1.33,1.46s.54,2.21,0,2.81-.58-.3-.82,1.54-.32,1.31.33,2.36,1.85,1.79,1.94,3.54a19.26,19.26,0,0,1-.24,4.12c-.18,1.32-.54,2.26-.73,3.23s-.42-.06-.27,2.12a14.84,14.84,0,0,1,0,3.08c-.07,1.85-1.21,1.57-.95,3.23a5.78,5.78,0,0,0,.85,2.51c.45,1,.94.46.36,2.12s-.72,1.12-.69,2.33-.73,1.88.17,3,.89.61.68,1.82-.55.15,0,2a6.79,6.79,0,0,1,.48,2.76,8.71,8.71,0,0,1-.15,2.69c-.15,1.48,0,1.06.36,1.9s1.39,2.21,1,3-.7.36-1.18,1.81-1.51,4.54-3.09,4.23-2.18-.72-2.6-1.44-.09-1-1.09-1.49a2.43,2.43,0,0,0-1.87-.33c-.87,0-1-.52-2,0s-1.24,1.15-1.84,1.09-1-.63-1.84-.15-.46.12-1.22,0-.39-.82-1.47,0-.49,1.08-2.39.75a15.32,15.32,0,0,1-2.85-.9c-.51-.06-1.06-1.24-2-.7a4.55,4.55,0,0,1-1.78.82c-1.09.3,1.3,1-1.81.72s-2.93-.72-4-.82a10.45,10.45,0,0,1-2.49-.69c-1.14-.3-2,0-2.51-1.33s-.24-1.39-.75-2.15-.91-.6-.91-1.48-.15-.75-.15-1.78.51-.46.3-1.55-.42-1,0-1.54.76-1.12,1.12-1.26,1.27-.25.67-1a7.15,7.15,0,0,1-1.28-2.12,3.51,3.51,0,0,1-.44-2.33c.06-1.09-.85-.3-.16-2s.82-.57.85-1.66-.12-.46.42-1.18,1.18-.08,1-1.5a7.15,7.15,0,0,1-.18-2.77c.18-.87-.7-1.32-.6-2.72s.17-.81-.16-1.75-1-.54-.63-2.27.66-.93.57-2-.48-.91-.18-2.06,1.36-.88.85-2.11a5,5,0,0,1-.64-2.45c-.06-1.22-.45.23,0-1.88a5.2,5.2,0,0,0,.16-3.2,15.34,15.34,0,0,1,0-3.18c0-1.54-.13-2.27.39-3.08s.6-.49.63-1.85.49-1.48.33-2.66-.84-.94-.69-1.57.85-.89.93-1.79.34.49.07-1.44a9.38,9.38,0,0,0-.73-2.67c-.27-1,.49,0,0-1.79s-.87-.39-.65-1.87a12.06,12.06,0,0,1,.6-2.27c.37-1.45-.06-.66.3-2.33s.91-1.09.64-2.12-1.54-.36-1-2.17.24-1.63.76-2.27,1.18-.76.88-1.9.5-1.4-.67-1.94S248,81,248.27,80.12s1.43-1.11.88-2.11-1.33-1.76-1.24-2.51.46-.7.94-2.48.91-1.88.66-2.69a9.32,9.32,0,0,0-.84-1.88c-.55-1.15-2-.75-1.48-1.69s1.24-.7,1.24-2.15-.16-3.18-.09-4.6.6-.78.18-2.17-.52-2.24-.85-3-1.24-1.54-1.57-2.81a20.18,20.18,0,0,0-.42-2.06,7,7,0,0,0-1.76-2.45c-.6-.51-.82-.33-1.81-2.56a6.55,6.55,0,0,0-2.18-3,3.77,3.77,0,0,1-1.15-1.72c-.4-.88.06-.07-.87-1s-1-.43-1.61-1.09-.7-.51-.88-1-.3-.3-.93-.78.49.12-1.15-1-1.52-.66-2.12-1.55.48-1.17-.88-1.15-.72.19-1.78.07-1.18,0-2.09-.16-.45-.48-1.23-.48-.34.4-1.43-.09a6.11,6.11,0,0,1-1.33-.76c-.69-.38-.85-.78-1.42-.6a9.66,9.66,0,0,1-1.24.43c-.75.17-.85.57-2.06.42a8.23,8.23,0,0,1-2.23-.42c-1.15-.37-.49-.58-1.85-.52s-1.45-.81-2-.42a10.11,10.11,0,0,0-1,.75,4.79,4.79,0,0,1-2.15,1.25c-1.39.51-1.27.66-1.76.6s-.36-.36-.6-.64.09-.6-.87-.48-1.61,0-2,.64-.67.63-1.94,1.26-1.24.73-2.39,1.28-.36.72-1.54.78a6.85,6.85,0,0,1-2.06-.09c-.29-.09-.33-.75-.51,0a4.23,4.23,0,0,1-1.06,2c-.48.51-1,.27-1.21.57s-.14.67-.24,1.12a3.37,3.37,0,0,1-1.3,1.69c-.75.58-.36.55-1.69,1.16s-1.13.75-1.85.81-1.84,0-2,.33-.49.63-.58.82-.15.39-1,1.24-.45.76-1.27,1.57-1.45.94-1.78,1.88,0,.57-1.2,1.08-1.67-.66-1.94.88a16.45,16.45,0,0,0-.55,3.42c0,1.33.18.94,0,2s-.28,1.73-.52,2.78a20.07,20.07,0,0,1-1,2.82c-.3.79-.61,1.3-.51,1.84s.72,1.06.18,2.24-1,.31-.94,1.36-.46.66.06,2,1,1,1,2.39-.49,1.36-.24,2.11.48.67.18,1.54.45.25.12,1.4.21,1.68-1.3,2.38-.55,1.18-.06,2.06,1.12,1.57,1,2.73-.85,2.23-.85,2.71,0-.09.45,1.46.64,2,.49,2.6a21.9,21.9,0,0,1-.39,2.26c-.22.43-.4-.51-.13.76s.57,1.66.21,2.57a5.81,5.81,0,0,0-.63,1.94c0,.54.57,1,.42,2.47s-.42.15-.3,1.85,1,1.51.3,2.54-1.27.7-1.06,1.76.7.54.85,1.41.76,1.86.58,3.24-.58.55-.19,1.7.55,1,.64,2a3.51,3.51,0,0,1-.06,1.55,14.78,14.78,0,0,0-.67,1.42c-.09.45-.15-.48.22.84s.54,1.24.21,2.54-.25,2.57-.61,3.39a1.8,1.8,0,0,0-.09,1.82,16.88,16.88,0,0,1,.79,1.69,7.31,7.31,0,0,1,.12,2.63c-.28,1.06-.6.82-.64,1.57a3.25,3.25,0,0,0,.22,1.73,2.31,2.31,0,0,1,.24,1.81c-.22.78-.49.21-.61,1.54s-.45.85.24,1.57a4.74,4.74,0,0,1,1.33,3.33c0,1.42-.48,1.33.09,2.21s-.15.54-.18,1.69.09,1.15.06,2.15a11,11,0,0,1-.36,2.54,15.34,15.34,0,0,0-.3,2.87c-.09,1.37.24.76.24,2.63a21.72,21.72,0,0,0,.12,2.75c.06.82.16,1.79.21,2.52a6,6,0,0,1-.15,2.47c-.27.52.18,1.52-1.36,2.24s-2.15,2.36-3.17,1-1.79-2.05-2.18-2.15a1.44,1.44,0,0,0-1.33.24c-.58.4-1,.34-2.09.18s-1.24-.51-1.87-.23.14.54-1.58.63-1.24-.3-2.66-.3-1.78-.64-2.63-.12-.45,1.18-1.09,1.36-.3.91-2.44.69-1.55-.48-2.69-.79-1.16-.51-1.91-.15-2-.26-2.63.55-.7,1-1.28,1.45.27.73-1.5.36-1.13.67-2.64-1.18-2-.93-2.2-2.41-.49-1.13-.34-1.94.39-.12.42-1.63a20.53,20.53,0,0,1,.16-2.24c.12-1.49,1-.42.48-2.27s-1.21-2.3-.82-3.15.91-.08.76-.93a3.23,3.23,0,0,1,.15-1.81c.21-1,.7-.31.48-2.57s-.57-4.54-.57-6.39.72-4.08.76-5.26.05.27-.43-1.42a7.47,7.47,0,0,1-.54-2.93c-.09-1.79-.46-1.27-.37-2.91s.58-1.63.67-2.27a4.79,4.79,0,0,0-.36-3,6.75,6.75,0,0,1-.76-6.35c.55-1.54,1.84-2.39,1.48-3.45s-1-1.15-.85-2.26.67-.8.58-1.64A19,19,0,0,1,139,108a15.06,15.06,0,0,0-.51-3.3,4,4,0,0,1,.63-3.17,3.59,3.59,0,0,0,.82-2.39c0-.85-.21-2.63-.27-3.81a4.34,4.34,0,0,0-.67-2.43c-.48-.87-.32-.36-.32-2s0-.33.05-2.36.1-2,.49-2.72.63-.37.63-2.75.25-2.21.09-3.21-.51-.21-.66-2.51a28.78,28.78,0,0,0-.31-3c-.18-1.49-.57-.88-.14-1.94s.81-1.3.66-2.35a21.61,21.61,0,0,1-.24-4.18,23.74,23.74,0,0,0,.18-3.48,16.38,16.38,0,0,0-.28-3.2,7.29,7.29,0,0,0-1-2.79c-.7-1.05.36-.6-.37-1.62s-.72-.4-.81-1.61.69-2.6-.45-3.54-1.51-.87-2-1.78-.36.12-.61-1.48.31-1.15-.33-2.36A26.14,26.14,0,0,0,132,41.38a35.17,35.17,0,0,0-3.87-2.86c-1-.7-.19-.88-1.33-1.91s.72-.24-1.78-1.15-2.55-.46-3.57-1.15-.33-.43-2-1.64-1.06-1.3-2.87-1.65-3.11-.91-3.72-.91-1.72-.24-2.45-.18,0-.18-1.66-.52-1.67-.88-3.15-.15-1.24,1-2.6.85-2.42-.67-2.87-.58.27-.15-1.27.73S96.86,31.83,96,32a10.39,10.39,0,0,0-2.59.63c-1,.4-.91.67-1.76.7s-1.27-.33-1.42.28.33.32-.48,1.78S88.12,38.27,87,38.67a6.35,6.35,0,0,1-3.32.33c-1.64-.15-.27-.25-1.85.67s-2.42,1.65-2.72,1.53-.75-.87-1.27.31-.09,2-.94,2.45a13.33,13.33,0,0,0-1.81,1.48c-1,.81-1.91.63-2.24,1s.63.31-1.15,1.55-1,1.12-2.44,1.48-1.67.52-1.67.79,1.15,2,0,2.51-1.42.72-2,.91-1.48.18-.91,1.2,2.91.28,2.27,1.33-1.15,2.21-1.78,2.57-.79.34-.64.88.8,1.24.31,2.43S64,63,64.11,64s.33.48.66,1.51.82,1.15,0,2.42a3.26,3.26,0,0,0-.63,2.42,6,6,0,0,0,0,2.2c.24,1.18.85,1.21.73,2.69s-.7,2.73-.61,3.91a15.31,15.31,0,0,0,.15,2.27,24.12,24.12,0,0,1,.15,3.47c0,1-.81.37.19,1.58s1.66,1,1.17,2.06-.69.39-1.17,1.83a14.57,14.57,0,0,0-.68,4.24A12.63,12.63,0,0,0,64,96.82c.11.94.3,3.48.48,5.6a29.83,29.83,0,0,1,.43,3.74,57.17,57.17,0,0,1-.27,7.07c-.28,1.4-.25.52.08,2.31a19.78,19.78,0,0,1,.65,3.63c0,1.14.5,4.59.23,5.74s-.51-.06-.45,2.08.66,2.61.66,3.43a4.37,4.37,0,0,0,.37,1.81c.24.73-.58,1.09.3,1.78s1.18.24,1.24,1a33.33,33.33,0,0,1,.36,4.29c-.09,1.21-.52,1.49-.81,2.64s-1.09,1.76-1,3.36a4,4,0,0,0,.39,1.87,8,8,0,0,1,.7,3.9,6.19,6.19,0,0,0-.31,2.08c0,1.28-.39.34-.42,1.88s-.24,1.54-.18,2.6.42.79.33,1.88a11.37,11.37,0,0,0,.52,2.81,4.66,4.66,0,0,1-.49,2.57c-.6,1.3.84,2.32-1.51,1.72S63,166,61.69,166s-2.18.6-3.48.27-1.3-.66-2.9-1.06a13.73,13.73,0,0,0-3.48-.42c-.45,0-.87.7-2.36.63a5.12,5.12,0,0,0-2.83.67,4.36,4.36,0,0,1-2.6.37c-.4-.21-.31-.64-1.07-1.15s-1.66-1.28-2.11-.86-.88.46-1.55,1.22a8.23,8.23,0,0,1-2,1.81c-.64.34-.1,1-1.49.79s-2.26-.19-2.63-.64-1.06-.51-1.93-1-1.39-.27-1.67-1.72a10.8,10.8,0,0,1-.47-2.72c0-1.33-.34-1.88.05-2.79s.88-.09.82-1.42-.24.34-.33-1.66-.13-1.63.09-2.41.79-.34.64-1.22-.16-1.51-.43-3-.21-2.42,0-2.57a1.05,1.05,0,0,0,.63-1c-.06-.69-.39,0-.3-1.39a21.9,21.9,0,0,0-.06-2.63c0-.79,0-.09.46-1.18s.72-.76.66-1.78,0-2,0-3.52a4.26,4.26,0,0,0-.33-2.35c-.45-1.3-.6-.82-.51-2.06s-.19-1.24.14-1.57a2.91,2.91,0,0,0,.7-2.27c-.06-1.2-.21-1.81.06-2.36s.75-.24,0-1.11-.87-.1-1.21-1.61a16.87,16.87,0,0,1-.27-2.72c-.15-1.18-1.06-.36-.46-2.3s.64-2.42.46-3.24a8,8,0,0,1-.18-2.87c.18-.64.79-2.17,1.45-2s.6-.15.15-.79a3.08,3.08,0,0,1-.75-2.6c0-1.75.42-1.3-.12-2.51s.18-1,.18-1.76-.43-.78-.12-1.36,1.62-.48,1.35-1.36-.12-1.9-.33-2.87.45.15-.57-1.51-.76-1.36-.64-2.33-.12-1,.19-1.88.6-.27.38-2.08-.38-2.39-.05-3.09,1.24-.09,1-1.42.06-.45-.18-1.48-.3-.42-.42-1.27a7.33,7.33,0,0,1,.06-2.9c.28-1.42,1-.21.09-1.58s0-2-1.33-1.84-.91.49-1.91-.24-1-1.21-1.75-1.15a4.07,4.07,0,0,0-2,.82,11.34,11.34,0,0,1-1.67,1.11c-1.09.55-.93.85-2.38,1.21s-1.64.76-2.52.67-1-.09-1.15.15-.45,1.37-1.11,1.33-1.06-.21-1.51.45A4,4,0,0,1,13,80.31c-.7.48-.82.81-2,.75a9.15,9.15,0,0,0-3,.58c-.15.09-.45.84-.3-.24s1-.79-.06-1.61S6.14,79,5.89,78.37a9.53,9.53,0,0,1-.63-1.57,9.33,9.33,0,0,0-.75-1.58,5.23,5.23,0,0,1-.37-1.54c-.09-.6-.58-.2,0-1.87s1.25-1.24.6-2.09-1-.93-1.35-1.81S2.3,66.91,2.9,65Z"/></g></g></svg>